# MagicaVoxel @ Ephtracy

# group
o 

# material
mtllib handvox.mtl
usemtl palette

# normals
vn -1 0 0
vn 1 0 0
vn 0 0 1
vn 0 0 -1
vn 0 -1 0
vn 0 1 0

# texcoords
vt 0.0371094 0.5
vt 0.994141 0.5

# verts
v -0.4 0 -1
v -0.4 0 -1.1
v -0.4 1 -1
v -0.4 1 -1.1
v -0.3 0 0.8
v -0.3 0 -1
v -0.3 0 -1.1
v -0.3 0 -1.2
v -0.3 0.2 0.8
v -0.3 0.2 0.1
v -0.3 0.3 0.8
v -0.3 0.3 0.1
v -0.3 0.5 0.8
v -0.3 0.5 0.1
v -0.3 0.6 0.8
v -0.3 0.6 0.1
v -0.3 0.7 -0.1
v -0.3 0.7 -0.6
v -0.3 0.8 0.8
v -0.3 0.8 0
v -0.3 0.8 -0.1
v -0.3 0.8 -0.6
v -0.3 1 0
v -0.3 1 -1
v -0.3 1 -1.1
v -0.3 1 -1.2
v -0.3 1.1 -1
v -0.3 1.1 -1.1
v 0 0 0.8
v 0 0 0.7
v 0 0.1 0.8
v 0 0.1 0.7
v 0 0.7 0.8
v 0 0.7 0.7
v 0 0.8 0.8
v 0 0.8 0.7
v 0 0.9 0
v 0 0.9 -0.1
v 0 1 0
v 0 1 -0.1
v 0.1 0 0.7
v 0.1 0 -1
v 0.1 0 -1.1
v 0.1 0 -1.2
v 0.1 0.1 0.8
v 0.1 0.1 0.7
v 0.1 0.7 0.8
v 0.1 0.7 0.7
v 0.1 0.8 0.7
v 0.1 0.8 0
v 0.1 0.9 0
v 0.1 0.9 -0.1
v 0.1 1 -0.1
v 0.1 1 -1
v 0.1 1 -1.1
v 0.1 1 -1.2
v 0.1 1.1 -1
v 0.1 1.1 -1.1
v 0.2 0 -1
v 0.2 0 -1.1
v 0.2 1 -1
v 0.2 1 -1.1
v -0.3 0 0.8
v -0.3 0.2 0.8
v -0.3 0.3 0.8
v -0.3 0.5 0.8
v -0.3 0.6 0.8
v -0.3 0.8 0.8
v -0.2 0.2 0.8
v -0.2 0.3 0.8
v -0.2 0.5 0.8
v -0.2 0.6 0.8
v 0 0 0.8
v 0 0.1 0.8
v 0 0.7 0.8
v 0 0.8 0.8
v 0.1 0.1 0.8
v 0.1 0.7 0.8
v 0 0 0.7
v 0 0.1 0.7
v 0 0.7 0.7
v 0 0.8 0.7
v 0.1 0 0.7
v 0.1 0.1 0.7
v 0.1 0.7 0.7
v 0.1 0.8 0.7
v -0.3 0.8 0
v -0.3 1 0
v 0 0.9 0
v 0 1 0
v 0.1 0.8 0
v 0.1 0.9 0
v 0 0.9 -0.1
v 0 1 -0.1
v 0.1 0.9 -0.1
v 0.1 1 -0.1
v -0.4 0 -1
v -0.4 1 -1
v -0.3 0 -1
v -0.3 1 -1
v -0.3 1.1 -1
v 0.1 0 -1
v 0.1 1 -1
v 0.1 1.1 -1
v 0.2 0 -1
v 0.2 1 -1
v -0.4 0 -1.1
v -0.4 1 -1.1
v -0.3 0 -1.1
v -0.3 1 -1.1
v -0.3 1.1 -1.1
v 0.1 0 -1.1
v 0.1 1 -1.1
v 0.1 1.1 -1.1
v 0.2 0 -1.1
v 0.2 1 -1.1
v -0.3 0 -1.2
v -0.3 1 -1.2
v 0.1 0 -1.2
v 0.1 1 -1.2
v -0.3 0 0.8
v 0 0 0.8
v 0 0 0.7
v 0.1 0 0.7
v -0.4 0 -1
v -0.3 0 -1
v 0.1 0 -1
v 0.2 0 -1
v -0.4 0 -1.1
v -0.3 0 -1.1
v 0.1 0 -1.1
v 0.2 0 -1.1
v -0.3 0 -1.2
v 0.1 0 -1.2
v 0 0.1 0.8
v 0.1 0.1 0.8
v 0 0.1 0.7
v 0.1 0.1 0.7
v 0 0.7 0.8
v 0.1 0.7 0.8
v 0 0.7 0.7
v 0.1 0.7 0.7
v -0.3 0.8 0.8
v 0 0.8 0.8
v 0 0.8 0.7
v 0.1 0.8 0.7
v -0.3 0.8 0
v 0.1 0.8 0
v 0 0.9 0
v 0.1 0.9 0
v 0 0.9 -0.1
v 0.1 0.9 -0.1
v -0.3 1 0
v 0 1 0
v 0 1 -0.1
v 0.1 1 -0.1
v -0.4 1 -1
v -0.3 1 -1
v 0.1 1 -1
v 0.2 1 -1
v -0.4 1 -1.1
v -0.3 1 -1.1
v 0.1 1 -1.1
v 0.2 1 -1.1
v -0.3 1 -1.2
v 0.1 1 -1.2
v -0.3 1.1 -1
v 0.1 1.1 -1
v -0.3 1.1 -1.1
v 0.1 1.1 -1.1

# faces
f 3/2/1 2/2/1 1/2/1
f 4/2/1 2/2/1 3/2/1
f 9/1/1 6/1/1 5/1/1
f 10/1/1 6/1/1 9/1/1
f 11/2/1 10/2/1 9/2/1
f 12/1/1 6/1/1 10/1/1
f 12/2/1 10/2/1 11/2/1
f 13/1/1 12/1/1 11/1/1
f 14/1/1 6/1/1 12/1/1
f 14/1/1 12/1/1 13/1/1
f 15/2/1 14/2/1 13/2/1
f 16/1/1 6/1/1 14/1/1
f 16/2/1 14/2/1 15/2/1
f 17/1/1 16/1/1 15/1/1
f 17/1/1 6/1/1 16/1/1
f 18/1/1 6/1/1 17/1/1
f 19/1/1 17/1/1 15/1/1
f 20/1/1 17/1/1 19/1/1
f 21/2/1 18/2/1 17/2/1
f 21/1/1 17/1/1 20/1/1
f 22/1/1 6/1/1 18/1/1
f 22/2/1 18/2/1 21/2/1
f 23/1/1 21/1/1 20/1/1
f 23/1/1 22/1/1 21/1/1
f 24/1/1 6/1/1 22/1/1
f 24/1/1 22/1/1 23/1/1
f 25/2/1 8/2/1 7/2/1
f 26/2/1 8/2/1 25/2/1
f 27/2/1 25/2/1 24/2/1
f 28/2/1 25/2/1 27/2/1
f 29/1/2 30/1/2 31/1/2
f 31/1/2 30/1/2 32/1/2
f 33/1/2 34/1/2 35/1/2
f 35/1/2 34/1/2 36/1/2
f 37/1/2 38/1/2 39/1/2
f 39/1/2 38/1/2 40/1/2
f 41/1/2 42/1/2 46/1/2
f 45/1/2 46/1/2 47/1/2
f 46/1/2 42/1/2 48/1/2
f 47/1/2 46/1/2 48/1/2
f 48/1/2 42/1/2 49/1/2
f 49/1/2 42/1/2 50/1/2
f 50/1/2 42/1/2 51/1/2
f 51/1/2 42/1/2 52/1/2
f 52/1/2 42/1/2 53/1/2
f 53/1/2 42/1/2 54/1/2
f 43/2/2 44/2/2 55/2/2
f 55/2/2 44/2/2 56/2/2
f 54/2/2 55/2/2 57/2/2
f 57/2/2 55/2/2 58/2/2
f 59/2/2 60/2/2 61/2/2
f 61/2/2 60/2/2 62/2/2
f 69/1/3 64/1/3 63/1/3
f 69/2/3 65/2/3 64/2/3
f 70/1/3 66/1/3 65/1/3
f 70/2/3 65/2/3 69/2/3
f 71/2/3 67/2/3 66/2/3
f 71/1/3 66/1/3 70/1/3
f 72/1/3 68/1/3 67/1/3
f 72/2/3 67/2/3 71/2/3
f 73/1/3 71/1/3 70/1/3
f 73/1/3 70/1/3 69/1/3
f 73/1/3 72/1/3 71/1/3
f 73/1/3 69/1/3 63/1/3
f 74/1/3 72/1/3 73/1/3
f 75/1/3 68/1/3 72/1/3
f 75/1/3 72/1/3 74/1/3
f 76/1/3 68/1/3 75/1/3
f 77/1/3 75/1/3 74/1/3
f 78/1/3 75/1/3 77/1/3
f 83/1/3 80/1/3 79/1/3
f 84/1/3 80/1/3 83/1/3
f 85/1/3 82/1/3 81/1/3
f 86/1/3 82/1/3 85/1/3
f 89/1/3 88/1/3 87/1/3
f 90/1/3 88/1/3 89/1/3
f 91/1/3 89/1/3 87/1/3
f 92/1/3 89/1/3 91/1/3
f 95/1/3 94/1/3 93/1/3
f 96/1/3 94/1/3 95/1/3
f 99/2/3 98/2/3 97/2/3
f 100/2/3 98/2/3 99/2/3
f 103/2/3 101/2/3 100/2/3
f 104/2/3 101/2/3 103/2/3
f 105/2/3 103/2/3 102/2/3
f 106/2/3 103/2/3 105/2/3
f 107/2/4 108/2/4 109/2/4
f 109/2/4 108/2/4 110/2/4
f 110/2/4 111/2/4 113/2/4
f 113/2/4 111/2/4 114/2/4
f 112/2/4 113/2/4 115/2/4
f 115/2/4 113/2/4 116/2/4
f 117/2/4 118/2/4 119/2/4
f 119/2/4 118/2/4 120/2/4
f 123/1/5 122/1/5 121/1/5
f 126/1/5 123/1/5 121/1/5
f 126/1/5 124/1/5 123/1/5
f 127/1/5 124/1/5 126/1/5
f 129/2/5 126/2/5 125/2/5
f 129/2/5 128/2/5 127/2/5
f 129/2/5 127/2/5 126/2/5
f 130/2/5 128/2/5 129/2/5
f 131/2/5 128/2/5 130/2/5
f 132/2/5 128/2/5 131/2/5
f 133/2/5 131/2/5 130/2/5
f 134/2/5 131/2/5 133/2/5
f 137/1/5 136/1/5 135/1/5
f 138/1/5 136/1/5 137/1/5
f 139/1/6 140/1/6 141/1/6
f 141/1/6 140/1/6 142/1/6
f 143/1/6 144/1/6 145/1/6
f 143/1/6 145/1/6 147/1/6
f 145/1/6 146/1/6 147/1/6
f 147/1/6 146/1/6 148/1/6
f 149/1/6 150/1/6 151/1/6
f 151/1/6 150/1/6 152/1/6
f 153/1/6 154/1/6 155/1/6
f 153/1/6 155/1/6 158/1/6
f 155/1/6 156/1/6 158/1/6
f 158/1/6 156/1/6 159/1/6
f 157/2/6 158/2/6 161/2/6
f 161/2/6 158/2/6 162/2/6
f 159/2/6 160/2/6 163/2/6
f 163/2/6 160/2/6 164/2/6
f 162/2/6 163/2/6 165/2/6
f 165/2/6 163/2/6 166/2/6
f 167/2/6 168/2/6 169/2/6
f 169/2/6 168/2/6 170/2/6
