# MagicaVoxel @ Ephtracy

# group
o 

# material
mtllib vi.mtl
usemtl palette

# normals
vn -1 0 0
vn 1 0 0
vn 0 0 1
vn 0 0 -1
vn 0 -1 0
vn 0 1 0

# texcoords
vt 0.0332031 0.5
vt 0.123047 0.5
vt 0.232422 0.5
vt 0.353516 0.5
vt 0.517578 0.5
vt 0.939453 0.5
vt 0.943359 0.5
vt 0.982422 0.5
vt 0.990234 0.5
vt 0.994141 0.5

# verts
v -0.7 0.2 -0.1
v -0.7 0.2 -0.4
v -0.7 0.3 -0.1
v -0.7 0.3 -0.2
v -0.7 0.3 -0.3
v -0.7 0.3 -0.4
v -0.7 0.4 -0.2
v -0.7 0.4 -0.3
v -0.7 0.5 -0.1
v -0.7 0.5 -0.2
v -0.7 0.5 -0.3
v -0.7 0.5 -0.4
v -0.7 0.6 -0.2
v -0.7 0.6 -0.3
v -0.6 0 0
v -0.6 0 -0.5
v -0.6 0.1 0
v -0.6 0.1 -0.5
v -0.6 0.6 -0.2
v -0.6 0.6 -0.3
v -0.6 0.6 -0.4
v -0.6 0.7 0
v -0.6 0.7 -0.2
v -0.6 0.7 -0.3
v -0.6 1 0
v -0.6 1 -0.1
v -0.6 1 -0.3
v -0.6 1 -0.4
v -0.6 1.1 -0.1
v -0.6 1.1 -0.3
v -0.5 0.1 -0.2
v -0.5 0.1 -0.3
v -0.5 0.2 -0.2
v -0.5 0.2 -0.3
v -0.5 0.7 -0.4
v -0.5 0.7 -0.5
v -0.5 1 0
v -0.5 1 -0.1
v -0.5 1 -0.3
v -0.5 1 -0.4
v -0.5 1 -0.5
v -0.5 1.1 0
v -0.5 1.1 -0.1
v -0.5 1.1 -0.3
v -0.5 1.1 -0.4
v -0.4 1 -0.4
v -0.4 1 -0.5
v -0.4 1.1 -0.4
v -0.4 1.1 -0.5
v -0.3 0.1 -0.2
v -0.3 0.1 -0.3
v -0.3 0.2 -0.2
v -0.3 0.2 -0.3
v -0.3 0.3 -0.2
v -0.3 0.3 -0.3
v -0.2 0.3 -0.1
v -0.2 0.3 -0.2
v -0.2 0.3 -0.3
v -0.2 0.3 -0.4
v -0.2 0.4 -0.2
v -0.2 0.4 -0.3
v -0.2 0.5 -0.1
v -0.2 0.5 -0.2
v -0.2 0.5 -0.3
v -0.2 0.5 -0.4
v -0.1 0.2 -0.1
v -0.1 0.2 -0.2
v -0.1 0.2 -0.3
v -0.1 0.2 -0.4
v -0.1 0.3 -0.1
v -0.1 0.3 -0.2
v -0.1 0.3 -0.3
v -0.1 0.3 -0.4
v -0.6 0.2 -0.1
v -0.6 0.2 -0.2
v -0.6 0.2 -0.3
v -0.6 0.2 -0.4
v -0.6 0.3 -0.1
v -0.6 0.3 -0.2
v -0.6 0.3 -0.3
v -0.6 0.3 -0.4
v -0.5 0.3 -0.1
v -0.5 0.3 -0.2
v -0.5 0.3 -0.3
v -0.5 0.3 -0.4
v -0.5 0.4 -0.2
v -0.5 0.4 -0.3
v -0.5 0.5 -0.1
v -0.5 0.5 -0.2
v -0.5 0.5 -0.3
v -0.5 0.5 -0.4
v -0.5 0.6 -0.3
v -0.5 0.6 -0.4
v -0.5 0.7 0
v -0.5 0.7 -0.1
v -0.5 0.7 -0.3
v -0.5 0.7 -0.4
v -0.5 0.8 -0.1
v -0.5 0.9 0
v -0.5 0.9 -0.1
v -0.4 0.1 -0.2
v -0.4 0.1 -0.3
v -0.4 0.2 -0.2
v -0.4 0.2 -0.3
v -0.4 0.3 -0.2
v -0.4 0.3 -0.3
v -0.4 0.7 -0.4
v -0.4 0.7 -0.5
v -0.4 0.9 0
v -0.4 0.9 -0.1
v -0.4 0.9 -0.4
v -0.4 0.9 -0.5
v -0.4 1 -0.1
v -0.4 1.1 0
v -0.4 1.1 -0.1
v -0.3 1 -0.4
v -0.3 1 -0.5
v -0.3 1.1 -0.4
v -0.3 1.1 -0.5
v -0.2 0.1 -0.2
v -0.2 0.1 -0.3
v -0.2 0.2 -0.2
v -0.2 0.2 -0.3
v -0.2 0.7 -0.1
v -0.2 0.7 -0.2
v -0.2 0.7 -0.3
v -0.2 0.7 -0.4
v -0.2 0.8 -0.1
v -0.2 0.8 -0.2
v -0.2 0.9 -0.1
v -0.2 0.9 -0.2
v -0.2 0.9 -0.3
v -0.2 0.9 -0.4
v -0.2 0.9 -0.5
v -0.2 1 -0.1
v -0.2 1 -0.2
v -0.2 1 -0.4
v -0.2 1 -0.5
v -0.2 1.1 -0.1
v -0.2 1.1 -0.4
v -0.1 0 0
v -0.1 0 -0.5
v -0.1 0.1 0
v -0.1 0.1 -0.5
v -0.1 0.6 -0.2
v -0.1 0.6 -0.3
v -0.1 0.7 -0.2
v -0.1 0.7 -0.3
v 0 0.2 -0.1
v 0 0.2 -0.4
v 0 0.3 -0.1
v 0 0.3 -0.2
v 0 0.3 -0.3
v 0 0.3 -0.4
v 0 0.4 -0.2
v 0 0.4 -0.3
v 0 0.5 -0.1
v 0 0.5 -0.2
v 0 0.5 -0.3
v 0 0.5 -0.4
v 0 0.6 -0.2
v 0 0.6 -0.3
v -0.6 0 0
v -0.6 0.1 0
v -0.6 0.7 0
v -0.6 1 0
v -0.5 0.7 0
v -0.5 0.9 0
v -0.5 1 0
v -0.5 1.1 0
v -0.4 0.9 0
v -0.4 1.1 0
v -0.1 0 0
v -0.1 0.1 0
v -0.7 0.2 -0.1
v -0.7 0.3 -0.1
v -0.7 0.5 -0.1
v -0.6 0.2 -0.1
v -0.6 0.3 -0.1
v -0.6 1 -0.1
v -0.6 1.1 -0.1
v -0.5 0.3 -0.1
v -0.5 0.5 -0.1
v -0.5 0.7 -0.1
v -0.5 0.8 -0.1
v -0.5 0.9 -0.1
v -0.5 1 -0.1
v -0.5 1.1 -0.1
v -0.4 0.8 -0.1
v -0.4 0.9 -0.1
v -0.4 1 -0.1
v -0.4 1.1 -0.1
v -0.3 0.8 -0.1
v -0.3 0.9 -0.1
v -0.2 0.3 -0.1
v -0.2 0.5 -0.1
v -0.2 0.7 -0.1
v -0.2 0.8 -0.1
v -0.2 0.9 -0.1
v -0.2 1 -0.1
v -0.2 1.1 -0.1
v -0.1 0.2 -0.1
v -0.1 0.3 -0.1
v 0 0.2 -0.1
v 0 0.3 -0.1
v 0 0.5 -0.1
v -0.7 0.5 -0.2
v -0.7 0.6 -0.2
v -0.6 0.2 -0.2
v -0.6 0.3 -0.2
v -0.6 0.5 -0.2
v -0.6 0.6 -0.2
v -0.6 0.7 -0.2
v -0.5 0.1 -0.2
v -0.5 0.2 -0.2
v -0.5 0.3 -0.2
v -0.5 0.4 -0.2
v -0.5 0.5 -0.2
v -0.5 0.6 -0.2
v -0.5 0.7 -0.2
v -0.4 0.1 -0.2
v -0.4 0.2 -0.2
v -0.4 0.3 -0.2
v -0.4 0.5 -0.2
v -0.4 0.6 -0.2
v -0.3 0.1 -0.2
v -0.3 0.2 -0.2
v -0.3 0.3 -0.2
v -0.3 0.5 -0.2
v -0.3 0.6 -0.2
v -0.2 0.1 -0.2
v -0.2 0.2 -0.2
v -0.2 0.3 -0.2
v -0.2 0.4 -0.2
v -0.2 0.5 -0.2
v -0.2 0.6 -0.2
v -0.2 0.7 -0.2
v -0.1 0.2 -0.2
v -0.1 0.3 -0.2
v -0.1 0.5 -0.2
v -0.1 0.6 -0.2
v -0.1 0.7 -0.2
v 0 0.5 -0.2
v 0 0.6 -0.2
v -0.7 0.5 -0.3
v -0.7 0.6 -0.3
v -0.6 0.2 -0.3
v -0.6 0.3 -0.3
v -0.6 0.5 -0.3
v -0.6 0.6 -0.3
v -0.6 1 -0.3
v -0.6 1.1 -0.3
v -0.5 0.1 -0.3
v -0.5 0.2 -0.3
v -0.5 0.3 -0.3
v -0.5 0.4 -0.3
v -0.5 0.5 -0.3
v -0.5 0.6 -0.3
v -0.5 0.7 -0.3
v -0.5 1 -0.3
v -0.5 1.1 -0.3
v -0.4 0.1 -0.3
v -0.4 0.2 -0.3
v -0.4 0.3 -0.3
v -0.4 0.5 -0.3
v -0.4 0.6 -0.3
v -0.3 0.1 -0.3
v -0.3 0.2 -0.3
v -0.3 0.3 -0.3
v -0.3 0.5 -0.3
v -0.3 0.6 -0.3
v -0.2 0.1 -0.3
v -0.2 0.2 -0.3
v -0.2 0.3 -0.3
v -0.2 0.4 -0.3
v -0.2 0.5 -0.3
v -0.2 0.6 -0.3
v -0.2 0.7 -0.3
v -0.1 0.2 -0.3
v -0.1 0.3 -0.3
v -0.1 0.5 -0.3
v -0.1 0.6 -0.3
v -0.1 0.7 -0.3
v 0 0.5 -0.3
v 0 0.6 -0.3
v -0.7 0.2 -0.4
v -0.7 0.3 -0.4
v -0.7 0.5 -0.4
v -0.6 0.2 -0.4
v -0.6 0.3 -0.4
v -0.6 0.6 -0.4
v -0.6 1 -0.4
v -0.5 0.3 -0.4
v -0.5 0.5 -0.4
v -0.5 0.6 -0.4
v -0.5 0.7 -0.4
v -0.5 1 -0.4
v -0.5 1.1 -0.4
v -0.4 0.7 -0.4
v -0.4 0.9 -0.4
v -0.4 1 -0.4
v -0.4 1.1 -0.4
v -0.3 1 -0.4
v -0.3 1.1 -0.4
v -0.2 0.3 -0.4
v -0.2 0.5 -0.4
v -0.2 0.7 -0.4
v -0.2 0.9 -0.4
v -0.2 1 -0.4
v -0.2 1.1 -0.4
v -0.1 0.2 -0.4
v -0.1 0.3 -0.4
v 0 0.2 -0.4
v 0 0.3 -0.4
v 0 0.5 -0.4
v -0.6 0 -0.5
v -0.6 0.1 -0.5
v -0.5 0.7 -0.5
v -0.5 1 -0.5
v -0.4 0.7 -0.5
v -0.4 0.9 -0.5
v -0.4 1 -0.5
v -0.4 1.1 -0.5
v -0.3 1 -0.5
v -0.3 1.1 -0.5
v -0.2 0.9 -0.5
v -0.2 1 -0.5
v -0.1 0 -0.5
v -0.1 0.1 -0.5
v -0.6 0 0
v -0.1 0 0
v -0.6 0 -0.5
v -0.1 0 -0.5
v -0.7 0.2 -0.1
v -0.6 0.2 -0.1
v -0.1 0.2 -0.1
v 0 0.2 -0.1
v -0.6 0.2 -0.2
v -0.5 0.2 -0.2
v -0.2 0.2 -0.2
v -0.1 0.2 -0.2
v -0.6 0.2 -0.3
v -0.5 0.2 -0.3
v -0.2 0.2 -0.3
v -0.1 0.2 -0.3
v -0.7 0.2 -0.4
v -0.6 0.2 -0.4
v -0.1 0.2 -0.4
v 0 0.2 -0.4
v -0.6 0.3 -0.1
v -0.5 0.3 -0.1
v -0.2 0.3 -0.1
v -0.1 0.3 -0.1
v -0.6 0.3 -0.2
v -0.5 0.3 -0.2
v -0.4 0.3 -0.2
v -0.3 0.3 -0.2
v -0.2 0.3 -0.2
v -0.1 0.3 -0.2
v -0.6 0.3 -0.3
v -0.5 0.3 -0.3
v -0.4 0.3 -0.3
v -0.3 0.3 -0.3
v -0.2 0.3 -0.3
v -0.1 0.3 -0.3
v -0.6 0.3 -0.4
v -0.5 0.3 -0.4
v -0.2 0.3 -0.4
v -0.1 0.3 -0.4
v -0.6 0.6 -0.3
v -0.5 0.6 -0.3
v -0.6 0.6 -0.4
v -0.5 0.6 -0.4
v -0.6 0.7 0
v -0.5 0.7 0
v -0.5 0.7 -0.1
v -0.2 0.7 -0.1
v -0.6 0.7 -0.2
v -0.5 0.7 -0.2
v -0.2 0.7 -0.2
v -0.5 0.7 -0.3
v -0.2 0.7 -0.3
v -0.5 0.7 -0.4
v -0.4 0.7 -0.4
v -0.2 0.7 -0.4
v -0.5 0.7 -0.5
v -0.4 0.7 -0.5
v -0.5 0.9 0
v -0.4 0.9 0
v -0.5 0.9 -0.1
v -0.4 0.9 -0.1
v -0.4 0.9 -0.4
v -0.2 0.9 -0.4
v -0.4 0.9 -0.5
v -0.2 0.9 -0.5
v -0.6 0.1 0
v -0.1 0.1 0
v -0.5 0.1 -0.2
v -0.4 0.1 -0.2
v -0.3 0.1 -0.2
v -0.2 0.1 -0.2
v -0.5 0.1 -0.3
v -0.4 0.1 -0.3
v -0.3 0.1 -0.3
v -0.2 0.1 -0.3
v -0.6 0.1 -0.5
v -0.1 0.1 -0.5
v -0.7 0.5 -0.1
v -0.5 0.5 -0.1
v -0.2 0.5 -0.1
v 0 0.5 -0.1
v -0.7 0.5 -0.2
v -0.6 0.5 -0.2
v -0.5 0.5 -0.2
v -0.2 0.5 -0.2
v -0.1 0.5 -0.2
v 0 0.5 -0.2
v -0.7 0.5 -0.3
v -0.6 0.5 -0.3
v -0.5 0.5 -0.3
v -0.2 0.5 -0.3
v -0.1 0.5 -0.3
v 0 0.5 -0.3
v -0.7 0.5 -0.4
v -0.5 0.5 -0.4
v -0.2 0.5 -0.4
v 0 0.5 -0.4
v -0.7 0.6 -0.2
v -0.6 0.6 -0.2
v -0.1 0.6 -0.2
v 0 0.6 -0.2
v -0.7 0.6 -0.3
v -0.6 0.6 -0.3
v -0.1 0.6 -0.3
v 0 0.6 -0.3
v -0.2 0.7 -0.2
v -0.1 0.7 -0.2
v -0.2 0.7 -0.3
v -0.1 0.7 -0.3
v -0.6 1 0
v -0.5 1 0
v -0.6 1 -0.1
v -0.5 1 -0.1
v -0.6 1 -0.3
v -0.5 1 -0.3
v -0.6 1 -0.4
v -0.5 1 -0.4
v -0.4 1 -0.4
v -0.3 1 -0.4
v -0.2 1 -0.4
v -0.5 1 -0.5
v -0.4 1 -0.5
v -0.3 1 -0.5
v -0.2 1 -0.5
v -0.5 1.1 0
v -0.4 1.1 0
v -0.6 1.1 -0.1
v -0.5 1.1 -0.1
v -0.4 1.1 -0.1
v -0.2 1.1 -0.1
v -0.6 1.1 -0.3
v -0.5 1.1 -0.3
v -0.5 1.1 -0.4
v -0.4 1.1 -0.4
v -0.3 1.1 -0.4
v -0.2 1.1 -0.4
v -0.4 1.1 -0.5
v -0.3 1.1 -0.5

# faces
f 3/9/1 2/9/1 1/9/1
f 4/9/1 2/9/1 3/9/1
f 5/9/1 2/9/1 4/9/1
f 6/9/1 2/9/1 5/9/1
f 7/8/1 4/8/1 3/8/1
f 7/9/1 5/9/1 4/9/1
f 8/8/1 6/8/1 5/8/1
f 8/9/1 5/9/1 7/9/1
f 9/8/1 7/8/1 3/8/1
f 9/8/1 8/8/1 7/8/1
f 10/8/1 8/8/1 9/8/1
f 11/8/1 6/8/1 8/8/1
f 11/8/1 8/8/1 10/8/1
f 12/8/1 6/8/1 11/8/1
f 13/8/1 11/8/1 10/8/1
f 14/8/1 11/8/1 13/8/1
f 17/10/1 16/10/1 15/10/1
f 18/10/1 16/10/1 17/10/1
f 23/3/1 20/3/1 19/3/1
f 24/2/1 21/2/1 20/2/1
f 24/3/1 20/3/1 23/3/1
f 25/2/1 23/2/1 22/2/1
f 25/2/1 24/2/1 23/2/1
f 26/2/1 24/2/1 25/2/1
f 27/2/1 21/2/1 24/2/1
f 27/2/1 24/2/1 26/2/1
f 28/2/1 21/2/1 27/2/1
f 29/2/1 27/2/1 26/2/1
f 30/2/1 27/2/1 29/2/1
f 33/7/1 32/7/1 31/7/1
f 34/7/1 32/7/1 33/7/1
f 40/2/1 36/2/1 35/2/1
f 41/2/1 36/2/1 40/2/1
f 42/2/1 38/2/1 37/2/1
f 43/2/1 38/2/1 42/2/1
f 44/2/1 40/2/1 39/2/1
f 45/2/1 40/2/1 44/2/1
f 48/2/1 47/2/1 46/2/1
f 49/2/1 47/2/1 48/2/1
f 52/7/1 51/7/1 50/7/1
f 53/7/1 51/7/1 52/7/1
f 54/1/1 53/1/1 52/1/1
f 55/1/1 53/1/1 54/1/1
f 60/8/1 57/8/1 56/8/1
f 61/8/1 59/8/1 58/8/1
f 62/8/1 60/8/1 56/8/1
f 63/8/1 60/8/1 62/8/1
f 64/8/1 59/8/1 61/8/1
f 65/8/1 59/8/1 64/8/1
f 70/9/1 67/9/1 66/9/1
f 71/9/1 67/9/1 70/9/1
f 72/9/1 69/9/1 68/9/1
f 73/9/1 69/9/1 72/9/1
f 74/9/2 75/9/2 78/9/2
f 78/9/2 75/9/2 79/9/2
f 76/9/2 77/9/2 80/9/2
f 80/9/2 77/9/2 81/9/2
f 82/8/2 83/8/2 86/8/2
f 84/8/2 85/8/2 87/8/2
f 82/8/2 86/8/2 88/8/2
f 88/8/2 86/8/2 89/8/2
f 87/8/2 85/8/2 90/8/2
f 90/8/2 85/8/2 91/8/2
f 92/2/2 93/2/2 96/2/2
f 96/2/2 93/2/2 97/2/2
f 94/2/2 95/2/2 98/2/2
f 94/2/2 98/2/2 99/2/2
f 99/2/2 98/2/2 100/2/2
f 101/7/2 102/7/2 103/7/2
f 103/7/2 102/7/2 104/7/2
f 103/1/2 104/1/2 105/1/2
f 105/1/2 104/1/2 106/1/2
f 107/2/2 108/2/2 111/2/2
f 111/2/2 108/2/2 112/2/2
f 109/2/2 110/2/2 113/2/2
f 109/2/2 113/2/2 114/2/2
f 114/2/2 113/2/2 115/2/2
f 116/2/2 117/2/2 118/2/2
f 118/2/2 117/2/2 119/2/2
f 120/7/2 121/7/2 122/7/2
f 122/7/2 121/7/2 123/7/2
f 125/1/2 126/1/2 128/1/2
f 124/1/2 125/1/2 128/1/2
f 128/1/2 126/1/2 129/1/2
f 128/9/2 129/9/2 130/9/2
f 129/1/2 126/1/2 131/1/2
f 130/9/2 129/9/2 131/9/2
f 126/4/2 127/4/2 132/4/2
f 131/1/2 126/1/2 132/1/2
f 132/4/2 127/4/2 133/4/2
f 130/1/2 131/1/2 135/1/2
f 131/4/2 132/4/2 136/4/2
f 135/1/2 131/1/2 136/1/2
f 132/4/2 133/4/2 136/4/2
f 133/2/2 134/2/2 137/2/2
f 136/4/2 133/4/2 137/4/2
f 137/2/2 134/2/2 138/2/2
f 135/2/2 136/2/2 139/2/2
f 136/2/2 137/2/2 139/2/2
f 139/2/2 137/2/2 140/2/2
f 141/10/2 142/10/2 143/10/2
f 143/10/2 142/10/2 144/10/2
f 145/3/2 146/3/2 147/3/2
f 147/3/2 146/3/2 148/3/2
f 149/9/2 150/9/2 151/9/2
f 151/9/2 150/9/2 152/9/2
f 152/9/2 150/9/2 153/9/2
f 153/9/2 150/9/2 154/9/2
f 151/8/2 152/8/2 155/8/2
f 152/9/2 153/9/2 155/9/2
f 153/8/2 154/8/2 156/8/2
f 155/9/2 153/9/2 156/9/2
f 151/8/2 155/8/2 157/8/2
f 155/8/2 156/8/2 157/8/2
f 157/8/2 156/8/2 158/8/2
f 156/8/2 154/8/2 159/8/2
f 158/8/2 156/8/2 159/8/2
f 159/8/2 154/8/2 160/8/2
f 158/8/2 159/8/2 161/8/2
f 161/8/2 159/8/2 162/8/2
f 167/2/3 166/2/3 165/2/3
f 168/2/3 166/2/3 167/2/3
f 169/2/3 166/2/3 168/2/3
f 171/2/3 170/2/3 169/2/3
f 171/2/3 169/2/3 168/2/3
f 172/2/3 170/2/3 171/2/3
f 173/10/3 164/10/3 163/10/3
f 174/10/3 164/10/3 173/10/3
f 178/9/3 176/9/3 175/9/3
f 179/8/3 177/8/3 176/8/3
f 179/9/3 176/9/3 178/9/3
f 182/8/3 177/8/3 179/8/3
f 183/8/3 177/8/3 182/8/3
f 187/2/3 181/2/3 180/2/3
f 188/2/3 181/2/3 187/2/3
f 189/9/3 186/9/3 185/9/3
f 189/1/3 185/1/3 184/1/3
f 190/9/3 186/9/3 189/9/3
f 193/1/3 189/1/3 184/1/3
f 193/1/3 190/1/3 189/1/3
f 193/1/3 191/1/3 190/1/3
f 194/1/3 191/1/3 193/1/3
f 197/1/3 193/1/3 184/1/3
f 198/9/3 194/9/3 193/9/3
f 198/1/3 193/1/3 197/1/3
f 199/1/3 191/1/3 194/1/3
f 199/9/3 194/9/3 198/9/3
f 200/2/3 192/2/3 191/2/3
f 200/1/3 191/1/3 199/1/3
f 201/2/3 192/2/3 200/2/3
f 203/8/3 196/8/3 195/8/3
f 204/9/3 203/9/3 202/9/3
f 205/8/3 196/8/3 203/8/3
f 205/9/3 203/9/3 204/9/3
f 206/8/3 196/8/3 205/8/3
f 211/8/3 208/8/3 207/8/3
f 212/8/3 208/8/3 211/8/3
f 215/8/3 210/8/3 209/8/3
f 216/8/3 210/8/3 215/8/3
f 218/1/3 212/1/3 211/1/3
f 219/3/3 213/3/3 212/3/3
f 219/1/3 212/1/3 218/1/3
f 220/3/3 213/3/3 219/3/3
f 221/7/3 215/7/3 214/7/3
f 222/1/3 216/1/3 215/1/3
f 222/7/3 215/7/3 221/7/3
f 223/5/3 217/5/3 216/5/3
f 223/1/3 216/1/3 222/1/3
f 224/6/3 218/6/3 217/6/3
f 224/6/3 219/6/3 218/6/3
f 225/3/3 220/3/3 219/3/3
f 225/6/3 219/6/3 224/6/3
f 228/5/3 217/5/3 223/5/3
f 229/3/3 225/3/3 224/3/3
f 229/6/3 224/6/3 217/6/3
f 230/3/3 220/3/3 225/3/3
f 230/3/3 225/3/3 229/3/3
f 231/7/3 227/7/3 226/7/3
f 232/1/3 228/1/3 227/1/3
f 232/7/3 227/7/3 231/7/3
f 233/5/3 217/5/3 228/5/3
f 233/1/3 228/1/3 232/1/3
f 234/6/3 229/6/3 217/6/3
f 234/5/3 217/5/3 233/5/3
f 234/6/3 230/6/3 229/6/3
f 235/6/3 230/6/3 234/6/3
f 236/3/3 220/3/3 230/3/3
f 236/6/3 230/6/3 235/6/3
f 237/3/3 220/3/3 236/3/3
f 238/8/3 233/8/3 232/8/3
f 239/8/3 233/8/3 238/8/3
f 240/1/3 236/1/3 235/1/3
f 241/3/3 237/3/3 236/3/3
f 241/1/3 236/1/3 240/1/3
f 242/3/3 237/3/3 241/3/3
f 243/8/3 241/8/3 240/8/3
f 244/8/3 241/8/3 243/8/3
f 245/8/4 246/8/4 249/8/4
f 249/8/4 246/8/4 250/8/4
f 247/8/4 248/8/4 254/8/4
f 254/8/4 248/8/4 255/8/4
f 249/1/4 250/1/4 257/1/4
f 257/1/4 250/1/4 258/1/4
f 251/2/4 252/2/4 260/2/4
f 260/2/4 252/2/4 261/2/4
f 253/7/4 254/7/4 262/7/4
f 254/1/4 255/1/4 263/1/4
f 262/7/4 254/7/4 263/7/4
f 255/5/4 256/5/4 264/5/4
f 263/1/4 255/1/4 264/1/4
f 256/6/4 257/6/4 265/6/4
f 257/6/4 258/6/4 265/6/4
f 258/3/4 259/3/4 266/3/4
f 265/6/4 258/6/4 266/6/4
f 264/5/4 256/5/4 269/5/4
f 256/6/4 265/6/4 270/6/4
f 265/3/4 266/3/4 270/3/4
f 266/3/4 259/3/4 271/3/4
f 270/3/4 266/3/4 271/3/4
f 267/7/4 268/7/4 272/7/4
f 268/1/4 269/1/4 273/1/4
f 272/7/4 268/7/4 273/7/4
f 269/5/4 256/5/4 274/5/4
f 273/1/4 269/1/4 274/1/4
f 256/6/4 270/6/4 275/6/4
f 274/5/4 256/5/4 275/5/4
f 270/6/4 271/6/4 275/6/4
f 275/6/4 271/6/4 276/6/4
f 271/3/4 259/3/4 277/3/4
f 276/6/4 271/6/4 277/6/4
f 277/3/4 259/3/4 278/3/4
f 273/8/4 274/8/4 279/8/4
f 279/8/4 274/8/4 280/8/4
f 276/1/4 277/1/4 281/1/4
f 277/3/4 278/3/4 282/3/4
f 281/1/4 277/1/4 282/1/4
f 282/3/4 278/3/4 283/3/4
f 281/8/4 282/8/4 284/8/4
f 284/8/4 282/8/4 285/8/4
f 286/9/4 287/9/4 289/9/4
f 287/8/4 288/8/4 290/8/4
f 289/9/4 287/9/4 290/9/4
f 290/8/4 288/8/4 293/8/4
f 293/8/4 288/8/4 294/8/4
f 291/2/4 292/2/4 295/2/4
f 295/2/4 292/2/4 296/2/4
f 296/2/4 292/2/4 297/2/4
f 297/2/4 298/2/4 301/2/4
f 301/2/4 298/2/4 302/2/4
f 299/4/4 300/4/4 307/4/4
f 307/4/4 300/4/4 308/4/4
f 303/2/4 304/2/4 309/2/4
f 309/2/4 304/2/4 310/2/4
f 305/8/4 306/8/4 312/8/4
f 311/9/4 312/9/4 313/9/4
f 312/8/4 306/8/4 314/8/4
f 313/9/4 312/9/4 314/9/4
f 314/8/4 306/8/4 315/8/4
f 318/2/4 319/2/4 320/2/4
f 320/2/4 319/2/4 321/2/4
f 321/2/4 319/2/4 322/2/4
f 322/2/4 323/2/4 324/2/4
f 321/2/4 322/2/4 324/2/4
f 324/2/4 323/2/4 325/2/4
f 321/2/4 324/2/4 326/2/4
f 326/2/4 324/2/4 327/2/4
f 316/10/4 317/10/4 328/10/4
f 328/10/4 317/10/4 329/10/4
f 332/10/5 331/10/5 330/10/5
f 333/10/5 331/10/5 332/10/5
f 338/9/5 335/9/5 334/9/5
f 341/9/5 337/9/5 336/9/5
f 342/8/5 339/8/5 338/8/5
f 342/9/5 338/9/5 334/9/5
f 343/8/5 339/8/5 342/8/5
f 344/8/5 341/8/5 340/8/5
f 345/9/5 337/9/5 341/9/5
f 345/8/5 341/8/5 344/8/5
f 346/9/5 342/9/5 334/9/5
f 347/9/5 342/9/5 346/9/5
f 348/9/5 337/9/5 345/9/5
f 349/9/5 337/9/5 348/9/5
f 354/8/5 351/8/5 350/8/5
f 355/8/5 351/8/5 354/8/5
f 358/8/5 353/8/5 352/8/5
f 359/8/5 353/8/5 358/8/5
f 362/5/5 357/5/5 356/5/5
f 363/5/5 357/5/5 362/5/5
f 366/8/5 361/8/5 360/8/5
f 367/8/5 361/8/5 366/8/5
f 368/8/5 365/8/5 364/8/5
f 369/8/5 365/8/5 368/8/5
f 372/2/5 371/2/5 370/2/5
f 373/2/5 371/2/5 372/2/5
f 376/2/5 375/2/5 374/2/5
f 378/2/5 376/2/5 374/2/5
f 379/1/5 377/1/5 376/1/5
f 379/2/5 376/2/5 378/2/5
f 380/1/5 377/1/5 379/1/5
f 383/4/5 382/4/5 381/4/5
f 384/4/5 382/4/5 383/4/5
f 385/4/5 382/4/5 384/4/5
f 386/2/5 384/2/5 383/2/5
f 387/2/5 384/2/5 386/2/5
f 390/2/5 389/2/5 388/2/5
f 391/2/5 389/2/5 390/2/5
f 394/2/5 393/2/5 392/2/5
f 395/2/5 393/2/5 394/2/5
f 396/10/6 397/10/6 398/10/6
f 398/10/6 397/10/6 399/10/6
f 399/10/6 397/10/6 400/10/6
f 400/10/6 397/10/6 401/10/6
f 396/10/6 398/10/6 402/10/6
f 399/10/6 400/10/6 403/10/6
f 403/10/6 400/10/6 404/10/6
f 401/10/6 397/10/6 405/10/6
f 403/10/6 404/10/6 406/10/6
f 404/10/6 405/10/6 406/10/6
f 396/10/6 402/10/6 406/10/6
f 402/10/6 403/10/6 406/10/6
f 405/10/6 397/10/6 407/10/6
f 406/10/6 405/10/6 407/10/6
f 408/8/6 409/8/6 412/8/6
f 412/8/6 409/8/6 413/8/6
f 413/8/6 409/8/6 414/8/6
f 410/8/6 411/8/6 415/8/6
f 415/8/6 411/8/6 416/8/6
f 416/8/6 411/8/6 417/8/6
f 418/8/6 419/8/6 424/8/6
f 419/8/6 420/8/6 424/8/6
f 424/8/6 420/8/6 425/8/6
f 422/8/6 423/8/6 426/8/6
f 421/8/6 422/8/6 426/8/6
f 426/8/6 423/8/6 427/8/6
f 428/8/6 429/8/6 432/8/6
f 432/8/6 429/8/6 433/8/6
f 430/8/6 431/8/6 434/8/6
f 434/8/6 431/8/6 435/8/6
f 436/3/6 437/3/6 438/3/6
f 438/3/6 437/3/6 439/3/6
f 440/2/6 441/2/6 442/2/6
f 442/2/6 441/2/6 443/2/6
f 444/2/6 445/2/6 446/2/6
f 446/2/6 445/2/6 447/2/6
f 447/2/6 448/2/6 451/2/6
f 451/2/6 448/2/6 452/2/6
f 449/2/6 450/2/6 453/2/6
f 453/2/6 450/2/6 454/2/6
f 455/2/6 456/2/6 458/2/6
f 458/2/6 456/2/6 459/2/6
f 457/2/6 458/2/6 461/2/6
f 459/2/6 460/2/6 461/2/6
f 458/2/6 459/2/6 461/2/6
f 461/2/6 460/2/6 462/2/6
f 462/2/6 460/2/6 463/2/6
f 463/2/6 460/2/6 464/2/6
f 464/2/6 460/2/6 465/2/6
f 465/2/6 460/2/6 466/2/6
f 464/2/6 465/2/6 467/2/6
f 467/2/6 465/2/6 468/2/6
