# MagicaVoxel @ Ephtracy

# group
o 

# material
mtllib book.mtl
usemtl palette

# normals
vn -1 0 0
vn 1 0 0
vn 0 0 1
vn 0 0 -1
vn 0 -1 0
vn 0 1 0

# texcoords
vt 0.00195312 0.5
vt 0.0410156 0.5
vt 0.0644531 0.5
vt 0.0917969 0.5
vt 0.369141 0.5
vt 0.373047 0.5
vt 0.677734 0.5
vt 0.849609 0.5
vt 0.958984 0.5
vt 0.994141 0.5

# verts
v -0.8 0 0.2
v -0.8 0 -0.6
v -0.8 0.5 0.1
v -0.8 0.5 -0.5
v -0.8 0.6 0
v -0.8 0.6 -0.4
v -0.8 0.7 -0.1
v -0.8 0.7 -0.2
v -0.8 0.9 0
v -0.8 0.9 -0.1
v -0.8 1 0.1
v -0.8 1 -0.2
v -0.8 1 -0.4
v -0.8 1 -0.5
v -0.8 1.1 0.1
v -0.8 1.1 0
v -0.8 1.2 0.1
v -0.8 1.2 0
v -0.8 1.3 0.1
v -0.8 1.3 -0.5
v -0.8 1.4 0
v -0.8 1.4 -0.4
v -0.8 1.5 -0.1
v -0.8 1.5 -0.2
v -0.8 1.7 0
v -0.8 1.7 -0.1
v -0.8 1.8 0.1
v -0.8 1.8 -0.2
v -0.8 1.8 -0.4
v -0.8 1.8 -0.5
v -0.8 1.9 0.1
v -0.8 1.9 0
v -0.8 2 0.1
v -0.8 2 0
v -0.8 2.4 0.2
v -0.8 2.4 -0.6
v -0.7 0 0.1
v -0.7 0 -0.5
v -0.7 0.1 0.1
v -0.7 0.1 -0.5
v -0.7 2.3 0.1
v -0.7 2.3 -0.5
v -0.7 2.4 0.1
v -0.7 2.4 -0.5
v 1 0.1 0.1
v 1 0.1 -0.5
v 1 0.2 0.1
v 1 0.8 0.1
v 1 1.1 0.1
v 1 1.3 0.1
v 1 1.4 0.1
v 1 1.5 0.1
v 1 1.7 0.1
v 1 1.8 0.1
v 1 1.9 0.1
v 1 2.3 0.1
v 1 2.3 -0.5
v 1.1 0 0.2
v 1.1 0 0.1
v 1.1 0 -0.5
v 1.1 0 -0.6
v 1.1 0.2 0.2
v 1.1 0.2 0.1
v 1.1 0.8 0.2
v 1.1 0.8 0.1
v 1.1 1.1 0.2
v 1.1 1.1 0.1
v 1.1 1.3 0.2
v 1.1 1.3 0.1
v 1.1 1.4 0.2
v 1.1 1.4 0.1
v 1.1 1.5 0.2
v 1.1 1.5 0.1
v 1.1 1.7 0.2
v 1.1 1.7 0.1
v 1.1 1.8 0.2
v 1.1 1.8 0.1
v 1.1 1.9 0.2
v 1.1 1.9 0.1
v 1.1 2.4 0.2
v 1.1 2.4 0.1
v 1.1 2.4 -0.5
v 1.1 2.4 -0.6
v -0.8 0 0.2
v -0.8 2.4 0.2
v -0.7 0 0.2
v -0.7 0.2 0.2
v -0.7 0.5 0.2
v -0.7 0.6 0.2
v -0.7 1.1 0.2
v -0.7 1.5 0.2
v -0.6 0.2 0.2
v -0.6 0.4 0.2
v -0.6 0.5 0.2
v -0.6 0.6 0.2
v -0.6 0.7 0.2
v -0.6 1 0.2
v -0.6 1.1 0.2
v -0.6 1.5 0.2
v -0.6 1.6 0.2
v -0.5 1 0.2
v -0.5 1.1 0.2
v -0.5 1.2 0.2
v -0.5 1.3 0.2
v -0.5 1.4 0.2
v -0.4 0.6 0.2
v -0.4 0.7 0.2
v -0.4 0.8 0.2
v -0.4 1 0.2
v -0.4 1.1 0.2
v -0.4 1.2 0.2
v -0.4 1.3 0.2
v -0.4 1.4 0.2
v -0.4 1.5 0.2
v -0.3 0.3 0.2
v -0.3 0.4 0.2
v -0.3 0.5 0.2
v -0.3 0.6 0.2
v -0.3 1 0.2
v -0.3 1.1 0.2
v -0.3 1.2 0.2
v -0.3 1.5 0.2
v -0.3 1.6 0.2
v -0.3 1.7 0.2
v -0.2 0.3 0.2
v -0.2 0.5 0.2
v -0.2 0.6 0.2
v -0.2 0.7 0.2
v -0.2 0.8 0.2
v -0.2 1.1 0.2
v -0.2 1.2 0.2
v -0.2 1.5 0.2
v -0.2 1.6 0.2
v -0.1 0.2 0.2
v -0.1 0.3 0.2
v -0.1 0.6 0.2
v -0.1 0.7 0.2
v -0.1 0.8 0.2
v -0.1 1 0.2
v 0 0.2 0.2
v 0 0.3 0.2
v 0 0.6 0.2
v 0 0.8 0.2
v 0 1 0.2
v 0 1.1 0.2
v 0 1.5 0.2
v 0 1.6 0.2
v 0 1.7 0.2
v 0.1 0.2 0.2
v 0.1 0.3 0.2
v 0.1 0.5 0.2
v 0.1 0.7 0.2
v 0.1 0.9 0.2
v 0.1 1.6 0.2
v 0.1 1.7 0.2
v 0.2 0.1 0.2
v 0.2 0.2 0.2
v 0.2 0.4 0.2
v 0.2 0.5 0.2
v 0.2 0.6 0.2
v 0.2 0.7 0.2
v 0.2 0.9 0.2
v 0.2 1 0.2
v 0.2 1.5 0.2
v 0.2 1.7 0.2
v 0.2 1.8 0.2
v 0.3 0.3 0.2
v 0.3 0.4 0.2
v 0.3 0.5 0.2
v 0.3 0.6 0.2
v 0.3 0.7 0.2
v 0.3 0.9 0.2
v 0.3 1 0.2
v 0.3 1.1 0.2
v 0.3 1.4 0.2
v 0.3 1.5 0.2
v 0.3 1.7 0.2
v 0.3 1.8 0.2
v 0.3 2.1 0.2
v 0.4 0.1 0.2
v 0.4 0.2 0.2
v 0.4 0.3 0.2
v 0.4 0.4 0.2
v 0.4 0.5 0.2
v 0.4 0.6 0.2
v 0.4 1.3 0.2
v 0.4 1.4 0.2
v 0.4 1.5 0.2
v 0.4 1.7 0.2
v 0.4 1.8 0.2
v 0.4 2 0.2
v 0.4 2.1 0.2
v 0.4 2.2 0.2
v 0.5 0.2 0.2
v 0.5 0.3 0.2
v 0.5 0.4 0.2
v 0.5 0.5 0.2
v 0.5 0.9 0.2
v 0.5 1 0.2
v 0.5 1.1 0.2
v 0.5 1.2 0.2
v 0.5 1.3 0.2
v 0.5 1.4 0.2
v 0.5 1.5 0.2
v 0.5 1.7 0.2
v 0.5 1.8 0.2
v 0.5 1.9 0.2
v 0.5 2 0.2
v 0.5 2.1 0.2
v 0.5 2.2 0.2
v 0.6 0.3 0.2
v 0.6 0.4 0.2
v 0.6 0.8 0.2
v 0.6 0.9 0.2
v 0.6 1 0.2
v 0.6 1.1 0.2
v 0.6 1.2 0.2
v 0.6 1.3 0.2
v 0.6 1.4 0.2
v 0.6 1.5 0.2
v 0.6 1.7 0.2
v 0.6 1.8 0.2
v 0.6 1.9 0.2
v 0.6 2 0.2
v 0.7 0.7 0.2
v 0.7 0.8 0.2
v 0.7 0.9 0.2
v 0.7 1 0.2
v 0.7 1.1 0.2
v 0.7 1.2 0.2
v 0.7 1.3 0.2
v 0.7 1.7 0.2
v 0.7 1.8 0.2
v 0.7 1.9 0.2
v 0.7 2 0.2
v 0.8 0.6 0.2
v 0.8 0.7 0.2
v 0.8 0.8 0.2
v 0.8 1 0.2
v 0.8 1.1 0.2
v 0.8 1.2 0.2
v 0.8 1.5 0.2
v 0.8 1.7 0.2
v 0.8 1.8 0.2
v 0.8 1.9 0.2
v 0.8 2 0.2
v 0.8 2.1 0.2
v 0.9 0.3 0.2
v 0.9 0.4 0.2
v 0.9 0.6 0.2
v 0.9 0.7 0.2
v 0.9 0.8 0.2
v 0.9 1.1 0.2
v 0.9 1.4 0.2
v 0.9 1.5 0.2
v 0.9 1.6 0.2
v 0.9 1.8 0.2
v 0.9 1.9 0.2
v 0.9 2 0.2
v 1 0.2 0.2
v 1 0.3 0.2
v 1 0.7 0.2
v 1 0.8 0.2
v 1 1.1 0.2
v 1 1.3 0.2
v 1 1.4 0.2
v 1 1.5 0.2
v 1 1.6 0.2
v 1 1.7 0.2
v 1 1.8 0.2
v 1 1.9 0.2
v 1.1 0 0.2
v 1.1 0.2 0.2
v 1.1 0.8 0.2
v 1.1 1.1 0.2
v 1.1 1.3 0.2
v 1.1 1.4 0.2
v 1.1 1.5 0.2
v 1.1 1.7 0.2
v 1.1 1.8 0.2
v 1.1 1.9 0.2
v 1.1 2.4 0.2
v -0.7 0 -0.5
v -0.7 0.1 -0.5
v -0.7 2.3 -0.5
v -0.7 2.4 -0.5
v 1 0.1 -0.5
v 1 2.3 -0.5
v 1.1 0 -0.5
v 1.1 2.4 -0.5
v -0.7 0 0.1
v -0.7 0.1 0.1
v -0.7 2.3 0.1
v -0.7 2.4 0.1
v 1 0.1 0.1
v 1 0.2 0.1
v 1 0.8 0.1
v 1 1.1 0.1
v 1 1.3 0.1
v 1 1.4 0.1
v 1 1.5 0.1
v 1 1.7 0.1
v 1 1.8 0.1
v 1 1.9 0.1
v 1 2.3 0.1
v 1.1 0 0.1
v 1.1 0.2 0.1
v 1.1 0.8 0.1
v 1.1 1.1 0.1
v 1.1 1.3 0.1
v 1.1 1.4 0.1
v 1.1 1.5 0.1
v 1.1 1.7 0.1
v 1.1 1.8 0.1
v 1.1 1.9 0.1
v 1.1 2.4 0.1
v -0.8 0 -0.6
v -0.8 2.4 -0.6
v -0.6 0.2 -0.6
v -0.6 0.3 -0.6
v -0.6 0.6 -0.6
v -0.6 0.7 -0.6
v -0.6 0.8 -0.6
v -0.6 0.9 -0.6
v -0.6 1 -0.6
v -0.6 1.1 -0.6
v -0.6 1.2 -0.6
v -0.6 1.3 -0.6
v -0.6 1.4 -0.6
v -0.6 1.5 -0.6
v -0.6 1.6 -0.6
v -0.6 1.7 -0.6
v -0.6 1.8 -0.6
v -0.6 1.9 -0.6
v -0.6 2 -0.6
v -0.6 2.2 -0.6
v 0.9 0.2 -0.6
v 0.9 0.3 -0.6
v 0.9 0.6 -0.6
v 0.9 0.7 -0.6
v 0.9 0.8 -0.6
v 0.9 0.9 -0.6
v 0.9 1 -0.6
v 0.9 1.1 -0.6
v 0.9 1.2 -0.6
v 0.9 1.3 -0.6
v 0.9 1.4 -0.6
v 0.9 1.5 -0.6
v 0.9 1.6 -0.6
v 0.9 1.7 -0.6
v 0.9 1.8 -0.6
v 0.9 1.9 -0.6
v 0.9 2 -0.6
v 0.9 2.2 -0.6
v 1.1 0 -0.6
v 1.1 2.4 -0.6
v -0.8 0 0.2
v -0.7 0 0.2
v 1.1 0 0.2
v -0.7 0 0.1
v 1.1 0 0.1
v -0.7 0 -0.5
v 1.1 0 -0.5
v -0.8 0 -0.6
v 1.1 0 -0.6
v -0.7 0.1 0.1
v 1 0.1 0.1
v -0.7 0.1 -0.5
v 1 0.1 -0.5
v -0.7 2.3 0.1
v 1 2.3 0.1
v -0.7 2.3 -0.5
v 1 2.3 -0.5
v -0.8 2.4 0.2
v 1.1 2.4 0.2
v -0.7 2.4 0.1
v 1.1 2.4 0.1
v -0.7 2.4 -0.5
v 1.1 2.4 -0.5
v -0.8 2.4 -0.6
v 1.1 2.4 -0.6

# faces
f 3/8/1 2/8/1 1/8/1
f 4/8/1 2/8/1 3/8/1
f 5/10/1 4/10/1 3/10/1
f 6/10/1 4/10/1 5/10/1
f 7/8/1 6/8/1 5/8/1
f 8/8/1 6/8/1 7/8/1
f 9/10/1 5/10/1 3/10/1
f 9/8/1 7/8/1 5/8/1
f 10/10/1 8/10/1 7/10/1
f 10/8/1 7/8/1 9/8/1
f 11/8/1 3/8/1 1/8/1
f 11/10/1 9/10/1 3/10/1
f 11/10/1 10/10/1 9/10/1
f 12/10/1 8/10/1 10/10/1
f 12/10/1 10/10/1 11/10/1
f 12/8/1 6/8/1 8/8/1
f 13/10/1 4/10/1 6/10/1
f 13/8/1 6/8/1 12/8/1
f 14/8/1 2/8/1 4/8/1
f 14/10/1 4/10/1 13/10/1
f 15/8/1 11/8/1 1/8/1
f 15/8/1 13/8/1 12/8/1
f 15/8/1 14/8/1 13/8/1
f 15/8/1 12/8/1 11/8/1
f 16/8/1 14/8/1 15/8/1
f 17/8/1 15/8/1 1/8/1
f 17/10/1 16/10/1 15/10/1
f 18/8/1 14/8/1 16/8/1
f 18/10/1 16/10/1 17/10/1
f 19/8/1 17/8/1 1/8/1
f 19/8/1 18/8/1 17/8/1
f 20/8/1 2/8/1 14/8/1
f 20/8/1 18/8/1 19/8/1
f 20/8/1 14/8/1 18/8/1
f 21/10/1 20/10/1 19/10/1
f 22/10/1 20/10/1 21/10/1
f 23/8/1 22/8/1 21/8/1
f 24/8/1 22/8/1 23/8/1
f 25/10/1 21/10/1 19/10/1
f 25/8/1 23/8/1 21/8/1
f 26/10/1 24/10/1 23/10/1
f 26/8/1 23/8/1 25/8/1
f 27/8/1 19/8/1 1/8/1
f 27/10/1 25/10/1 19/10/1
f 27/10/1 26/10/1 25/10/1
f 28/10/1 24/10/1 26/10/1
f 28/10/1 26/10/1 27/10/1
f 28/8/1 22/8/1 24/8/1
f 29/10/1 20/10/1 22/10/1
f 29/8/1 22/8/1 28/8/1
f 30/8/1 2/8/1 20/8/1
f 30/10/1 20/10/1 29/10/1
f 31/8/1 27/8/1 1/8/1
f 31/8/1 29/8/1 28/8/1
f 31/8/1 30/8/1 29/8/1
f 31/8/1 28/8/1 27/8/1
f 32/8/1 30/8/1 31/8/1
f 33/8/1 31/8/1 1/8/1
f 33/10/1 32/10/1 31/10/1
f 34/8/1 30/8/1 32/8/1
f 34/10/1 32/10/1 33/10/1
f 35/8/1 33/8/1 1/8/1
f 35/8/1 34/8/1 33/8/1
f 36/8/1 2/8/1 30/8/1
f 36/8/1 34/8/1 35/8/1
f 36/8/1 30/8/1 34/8/1
f 37/8/2 38/8/2 39/8/2
f 39/8/2 38/8/2 40/8/2
f 41/8/2 42/8/2 43/8/2
f 43/8/2 42/8/2 44/8/2
f 45/9/2 46/9/2 47/9/2
f 47/9/2 46/9/2 48/9/2
f 48/9/2 46/9/2 49/9/2
f 49/9/2 46/9/2 50/9/2
f 50/9/2 46/9/2 51/9/2
f 51/9/2 46/9/2 52/9/2
f 52/9/2 46/9/2 53/9/2
f 53/9/2 46/9/2 54/9/2
f 54/9/2 46/9/2 55/9/2
f 55/9/2 46/9/2 56/9/2
f 56/9/2 46/9/2 57/9/2
f 58/5/2 59/5/2 62/5/2
f 62/5/2 59/5/2 63/5/2
f 62/8/2 63/8/2 64/8/2
f 64/8/2 63/8/2 65/8/2
f 64/10/2 65/10/2 66/10/2
f 66/10/2 65/10/2 67/10/2
f 66/8/2 67/8/2 68/8/2
f 68/8/2 67/8/2 69/8/2
f 68/2/2 69/2/2 70/2/2
f 70/2/2 69/2/2 71/2/2
f 70/8/2 71/8/2 72/8/2
f 72/8/2 71/8/2 73/8/2
f 72/2/2 73/2/2 74/2/2
f 74/2/2 73/2/2 75/2/2
f 74/8/2 75/8/2 76/8/2
f 76/8/2 75/8/2 77/8/2
f 76/2/2 77/2/2 78/2/2
f 78/2/2 77/2/2 79/2/2
f 78/8/2 79/8/2 80/8/2
f 80/8/2 79/8/2 81/8/2
f 60/8/2 61/8/2 82/8/2
f 82/8/2 61/8/2 83/8/2
f 86/8/3 85/8/3 84/8/3
f 87/8/3 85/8/3 86/8/3
f 88/8/3 85/8/3 87/8/3
f 89/8/3 85/8/3 88/8/3
f 90/8/3 85/8/3 89/8/3
f 91/8/3 85/8/3 90/8/3
f 92/5/3 87/5/3 86/5/3
f 92/8/3 88/8/3 87/8/3
f 93/8/3 88/8/3 92/8/3
f 94/10/3 89/10/3 88/10/3
f 94/8/3 88/8/3 93/8/3
f 95/8/3 90/8/3 89/8/3
f 95/10/3 89/10/3 94/10/3
f 96/8/3 90/8/3 95/8/3
f 97/8/3 90/8/3 96/8/3
f 98/10/3 91/10/3 90/10/3
f 98/8/3 90/8/3 97/8/3
f 99/8/3 85/8/3 91/8/3
f 99/10/3 91/10/3 98/10/3
f 100/8/3 85/8/3 99/8/3
f 101/10/3 98/10/3 97/10/3
f 101/8/3 97/8/3 96/8/3
f 102/6/3 99/6/3 98/6/3
f 102/10/3 98/10/3 101/10/3
f 103/6/3 99/6/3 102/6/3
f 104/6/3 99/6/3 103/6/3
f 105/6/3 99/6/3 104/6/3
f 106/6/3 95/6/3 94/6/3
f 106/10/3 96/10/3 95/10/3
f 107/8/3 101/8/3 96/8/3
f 107/10/3 96/10/3 106/10/3
f 107/8/3 102/8/3 101/8/3
f 108/8/3 102/8/3 107/8/3
f 109/8/3 102/8/3 108/8/3
f 110/10/3 103/10/3 102/10/3
f 110/8/3 102/8/3 109/8/3
f 111/6/3 104/6/3 103/6/3
f 111/10/3 103/10/3 110/10/3
f 112/4/3 105/4/3 104/4/3
f 112/6/3 104/6/3 111/6/3
f 113/6/3 99/6/3 105/6/3
f 113/4/3 105/4/3 112/4/3
f 114/10/3 100/10/3 99/10/3
f 114/6/3 99/6/3 113/6/3
f 115/5/3 93/5/3 92/5/3
f 116/10/3 94/10/3 93/10/3
f 116/5/3 93/5/3 115/5/3
f 117/6/3 106/6/3 94/6/3
f 117/10/3 94/10/3 116/10/3
f 117/6/3 107/6/3 106/6/3
f 118/6/3 107/6/3 117/6/3
f 119/10/3 110/10/3 109/10/3
f 119/8/3 109/8/3 108/8/3
f 120/6/3 111/6/3 110/6/3
f 120/10/3 110/10/3 119/10/3
f 121/4/3 113/4/3 112/4/3
f 121/6/3 111/6/3 120/6/3
f 121/4/3 112/4/3 111/4/3
f 121/4/3 114/4/3 113/4/3
f 122/10/3 100/10/3 114/10/3
f 122/4/3 114/4/3 121/4/3
f 123/8/3 85/8/3 100/8/3
f 123/10/3 100/10/3 122/10/3
f 124/8/3 85/8/3 123/8/3
f 125/5/3 115/5/3 92/5/3
f 125/8/3 117/8/3 116/8/3
f 125/8/3 116/8/3 115/8/3
f 126/10/3 118/10/3 117/10/3
f 126/8/3 117/8/3 125/8/3
f 127/6/3 107/6/3 118/6/3
f 127/10/3 118/10/3 126/10/3
f 128/10/3 108/10/3 107/10/3
f 128/6/3 107/6/3 127/6/3
f 129/8/3 120/8/3 119/8/3
f 129/10/3 108/10/3 128/10/3
f 129/8/3 119/8/3 108/8/3
f 130/10/3 121/10/3 120/10/3
f 130/8/3 120/8/3 129/8/3
f 131/4/3 122/4/3 121/4/3
f 131/10/3 121/10/3 130/10/3
f 132/6/3 123/6/3 122/6/3
f 132/4/3 122/4/3 131/4/3
f 133/10/3 124/10/3 123/10/3
f 133/6/3 123/6/3 132/6/3
f 134/5/3 92/5/3 86/5/3
f 134/5/3 125/5/3 92/5/3
f 135/10/3 127/10/3 126/10/3
f 135/5/3 125/5/3 134/5/3
f 135/10/3 126/10/3 125/10/3
f 136/4/3 128/4/3 127/4/3
f 136/10/3 127/10/3 135/10/3
f 137/6/3 129/6/3 128/6/3
f 137/4/3 128/4/3 136/4/3
f 138/10/3 130/10/3 129/10/3
f 138/6/3 129/6/3 137/6/3
f 139/10/3 130/10/3 138/10/3
f 140/10/3 135/10/3 134/10/3
f 140/5/3 134/5/3 86/5/3
f 141/4/3 137/4/3 136/4/3
f 141/10/3 135/10/3 140/10/3
f 141/4/3 136/4/3 135/4/3
f 141/4/3 138/4/3 137/4/3
f 142/4/3 138/4/3 141/4/3
f 143/6/3 139/6/3 138/6/3
f 143/4/3 138/4/3 142/4/3
f 144/10/3 130/10/3 139/10/3
f 144/6/3 139/6/3 143/6/3
f 145/4/3 133/4/3 132/4/3
f 145/10/3 130/10/3 144/10/3
f 145/4/3 132/4/3 131/4/3
f 145/4/3 131/4/3 130/4/3
f 146/4/3 133/4/3 145/4/3
f 147/10/3 124/10/3 133/10/3
f 147/4/3 133/4/3 146/4/3
f 148/8/3 85/8/3 124/8/3
f 148/10/3 124/10/3 147/10/3
f 149/5/3 140/5/3 86/5/3
f 149/5/3 141/5/3 140/5/3
f 150/10/3 142/10/3 141/10/3
f 150/5/3 141/5/3 149/5/3
f 151/10/3 142/10/3 150/10/3
f 152/4/3 143/4/3 142/4/3
f 152/4/3 144/4/3 143/4/3
f 152/4/3 146/4/3 145/4/3
f 152/4/3 145/4/3 144/4/3
f 153/4/3 146/4/3 152/4/3
f 154/10/3 147/10/3 146/10/3
f 154/8/3 148/8/3 147/8/3
f 155/8/3 85/8/3 148/8/3
f 155/8/3 148/8/3 154/8/3
f 156/5/3 149/5/3 86/5/3
f 157/8/3 151/8/3 150/8/3
f 157/5/3 149/5/3 156/5/3
f 157/8/3 150/8/3 149/8/3
f 158/8/3 151/8/3 157/8/3
f 159/10/3 142/10/3 151/10/3
f 159/8/3 151/8/3 158/8/3
f 160/4/3 152/4/3 142/4/3
f 160/10/3 142/10/3 159/10/3
f 161/10/3 153/10/3 152/10/3
f 161/4/3 152/4/3 160/4/3
f 162/4/3 146/4/3 153/4/3
f 162/10/3 153/10/3 161/10/3
f 163/4/3 146/4/3 162/4/3
f 164/10/3 154/10/3 146/10/3
f 164/4/3 146/4/3 163/4/3
f 164/10/3 155/10/3 154/10/3
f 165/8/3 85/8/3 155/8/3
f 165/10/3 155/10/3 164/10/3
f 166/8/3 85/8/3 165/8/3
f 167/8/3 158/8/3 157/8/3
f 167/8/3 157/8/3 156/8/3
f 168/10/3 159/10/3 158/10/3
f 168/8/3 158/8/3 167/8/3
f 169/4/3 160/4/3 159/4/3
f 169/10/3 159/10/3 168/10/3
f 170/10/3 161/10/3 160/10/3
f 170/4/3 160/4/3 169/4/3
f 171/8/3 162/8/3 161/8/3
f 171/10/3 161/10/3 170/10/3
f 172/10/3 163/10/3 162/10/3
f 172/8/3 162/8/3 171/8/3
f 173/4/3 164/4/3 163/4/3
f 173/10/3 163/10/3 172/10/3
f 173/4/3 165/4/3 164/4/3
f 174/4/3 165/4/3 173/4/3
f 175/4/3 165/4/3 174/4/3
f 176/4/3 165/4/3 175/4/3
f 177/10/3 166/10/3 165/10/3
f 177/4/3 165/4/3 176/4/3
f 178/8/3 85/8/3 166/8/3
f 178/10/3 166/10/3 177/10/3
f 179/8/3 85/8/3 178/8/3
f 180/5/3 156/5/3 86/5/3
f 180/8/3 167/8/3 156/8/3
f 181/8/3 167/8/3 180/8/3
f 182/10/3 168/10/3 167/10/3
f 182/8/3 167/8/3 181/8/3
f 183/4/3 169/4/3 168/4/3
f 183/10/3 168/10/3 182/10/3
f 184/10/3 170/10/3 169/10/3
f 184/4/3 169/4/3 183/4/3
f 185/8/3 171/8/3 170/8/3
f 185/10/3 170/10/3 184/10/3
f 185/8/3 172/8/3 171/8/3
f 185/8/3 173/8/3 172/8/3
f 186/4/3 175/4/3 174/4/3
f 187/3/3 176/3/3 175/3/3
f 187/4/3 175/4/3 186/4/3
f 188/4/3 177/4/3 176/4/3
f 188/3/3 176/3/3 187/3/3
f 188/4/3 178/4/3 177/4/3
f 189/4/3 178/4/3 188/4/3
f 190/10/3 179/10/3 178/10/3
f 190/4/3 178/4/3 189/4/3
f 191/10/3 179/10/3 190/10/3
f 192/8/3 85/8/3 179/8/3
f 192/10/3 179/10/3 191/10/3
f 193/8/3 85/8/3 192/8/3
f 194/8/3 182/8/3 181/8/3
f 194/8/3 183/8/3 182/8/3
f 194/5/3 181/5/3 180/5/3
f 195/8/3 183/8/3 194/8/3
f 196/10/3 184/10/3 183/10/3
f 196/8/3 183/8/3 195/8/3
f 197/8/3 185/8/3 184/8/3
f 197/10/3 184/10/3 196/10/3
f 198/8/3 173/8/3 185/8/3
f 198/8/3 185/8/3 197/8/3
f 199/10/3 174/10/3 173/10/3
f 199/8/3 173/8/3 198/8/3
f 200/4/3 186/4/3 174/4/3
f 200/10/3 174/10/3 199/10/3
f 201/4/3 186/4/3 200/4/3
f 202/3/3 187/3/3 186/3/3
f 202/4/3 186/4/3 201/4/3
f 203/4/3 188/4/3 187/4/3
f 203/3/3 187/3/3 202/3/3
f 204/3/3 189/3/3 188/3/3
f 204/4/3 188/4/3 203/4/3
f 205/4/3 191/4/3 190/4/3
f 205/3/3 189/3/3 204/3/3
f 205/4/3 190/4/3 189/4/3
f 206/4/3 191/4/3 205/4/3
f 207/4/3 191/4/3 206/4/3
f 208/3/3 192/3/3 191/3/3
f 208/4/3 191/4/3 207/4/3
f 209/10/3 193/10/3 192/10/3
f 209/3/3 192/3/3 208/3/3
f 210/8/3 85/8/3 193/8/3
f 210/10/3 193/10/3 209/10/3
f 211/5/3 195/5/3 194/5/3
f 211/8/3 196/8/3 195/8/3
f 211/8/3 198/8/3 197/8/3
f 211/8/3 197/8/3 196/8/3
f 212/8/3 198/8/3 211/8/3
f 213/8/3 198/8/3 212/8/3
f 214/10/3 199/10/3 198/10/3
f 214/8/3 198/8/3 213/8/3
f 215/4/3 201/4/3 200/4/3
f 215/10/3 199/10/3 214/10/3
f 215/4/3 200/4/3 199/4/3
f 216/4/3 201/4/3 215/4/3
f 217/3/3 202/3/3 201/3/3
f 217/4/3 201/4/3 216/4/3
f 218/4/3 203/4/3 202/4/3
f 218/3/3 202/3/3 217/3/3
f 219/3/3 204/3/3 203/3/3
f 219/4/3 203/4/3 218/4/3
f 220/10/3 205/10/3 204/10/3
f 220/3/3 204/3/3 219/3/3
f 221/3/3 206/3/3 205/3/3
f 221/10/3 205/10/3 220/10/3
f 222/4/3 207/4/3 206/4/3
f 222/3/3 206/3/3 221/3/3
f 223/7/3 208/7/3 207/7/3
f 223/4/3 207/4/3 222/4/3
f 224/10/3 209/10/3 208/10/3
f 224/7/3 208/7/3 223/7/3
f 225/8/3 213/8/3 212/8/3
f 226/10/3 214/10/3 213/10/3
f 226/8/3 213/8/3 225/8/3
f 227/4/3 216/4/3 215/4/3
f 227/10/3 214/10/3 226/10/3
f 227/4/3 215/4/3 214/4/3
f 228/4/3 216/4/3 227/4/3
f 229/3/3 217/3/3 216/3/3
f 229/4/3 216/4/3 228/4/3
f 230/4/3 218/4/3 217/4/3
f 230/3/3 217/3/3 229/3/3
f 231/3/3 219/3/3 218/3/3
f 231/4/3 218/4/3 230/4/3
f 232/10/3 222/10/3 221/10/3
f 232/8/3 221/8/3 220/8/3
f 233/1/3 223/1/3 222/1/3
f 233/10/3 222/10/3 232/10/3
f 234/4/3 224/4/3 223/4/3
f 234/1/3 223/1/3 233/1/3
f 235/10/3 209/10/3 224/10/3
f 235/4/3 224/4/3 234/4/3
f 236/8/3 225/8/3 212/8/3
f 237/10/3 226/10/3 225/10/3
f 237/8/3 225/8/3 236/8/3
f 238/4/3 228/4/3 227/4/3
f 238/10/3 226/10/3 237/10/3
f 238/4/3 227/4/3 226/4/3
f 239/3/3 229/3/3 228/3/3
f 239/4/3 228/4/3 238/4/3
f 240/4/3 230/4/3 229/4/3
f 240/3/3 229/3/3 239/3/3
f 241/3/3 231/3/3 230/3/3
f 241/4/3 230/4/3 240/4/3
f 242/8/3 232/8/3 220/8/3
f 242/10/3 220/10/3 219/10/3
f 243/2/3 233/2/3 232/2/3
f 243/8/3 232/8/3 242/8/3
f 244/1/3 234/1/3 233/1/3
f 244/2/3 233/2/3 243/2/3
f 245/3/3 235/3/3 234/3/3
f 245/1/3 234/1/3 244/1/3
f 246/10/3 209/10/3 235/10/3
f 246/3/3 235/3/3 245/3/3
f 247/8/3 210/8/3 209/8/3
f 247/10/3 209/10/3 246/10/3
f 248/5/3 212/5/3 211/5/3
f 248/5/3 211/5/3 194/5/3
f 249/8/3 236/8/3 212/8/3
f 249/5/3 212/5/3 248/5/3
f 250/10/3 237/10/3 236/10/3
f 250/8/3 236/8/3 249/8/3
f 251/3/3 238/3/3 237/3/3
f 251/10/3 237/10/3 250/10/3
f 251/3/3 240/3/3 239/3/3
f 251/3/3 241/3/3 240/3/3
f 251/3/3 239/3/3 238/3/3
f 252/3/3 241/3/3 251/3/3
f 253/3/3 241/3/3 252/3/3
f 254/3/3 231/3/3 241/3/3
f 254/3/3 241/3/3 253/3/3
f 254/3/3 219/3/3 231/3/3
f 254/10/3 242/10/3 219/10/3
f 255/2/3 245/2/3 244/2/3
f 255/10/3 242/10/3 254/10/3
f 255/2/3 244/2/3 243/2/3
f 255/2/3 243/2/3 242/2/3
f 256/2/3 245/2/3 255/2/3
f 257/2/3 245/2/3 256/2/3
f 258/10/3 246/10/3 245/10/3
f 258/2/3 245/2/3 257/2/3
f 259/8/3 247/8/3 246/8/3
f 259/10/3 246/10/3 258/10/3
f 260/5/3 194/5/3 180/5/3
f 260/5/3 248/5/3 194/5/3
f 261/8/3 250/8/3 249/8/3
f 261/5/3 248/5/3 260/5/3
f 261/8/3 249/8/3 248/8/3
f 261/8/3 251/8/3 250/8/3
f 262/10/3 252/10/3 251/10/3
f 262/8/3 251/8/3 261/8/3
f 263/3/3 253/3/3 252/3/3
f 263/10/3 252/10/3 262/10/3
f 264/10/3 254/10/3 253/10/3
f 264/3/3 253/3/3 263/3/3
f 265/10/3 254/10/3 264/10/3
f 266/2/3 255/2/3 254/2/3
f 266/10/3 254/10/3 265/10/3
f 267/8/3 256/8/3 255/8/3
f 267/2/3 255/2/3 266/2/3
f 268/2/3 257/2/3 256/2/3
f 268/8/3 256/8/3 267/8/3
f 269/2/3 257/2/3 268/2/3
f 270/8/3 258/8/3 257/8/3
f 270/2/3 257/2/3 269/2/3
f 270/8/3 259/8/3 258/8/3
f 271/8/3 259/8/3 270/8/3
f 272/5/3 260/5/3 180/5/3
f 272/5/3 180/5/3 86/5/3
f 273/8/3 263/8/3 262/8/3
f 273/5/3 260/5/3 272/5/3
f 273/8/3 262/8/3 261/8/3
f 273/8/3 261/8/3 260/8/3
f 274/10/3 264/10/3 263/10/3
f 274/8/3 263/8/3 273/8/3
f 275/8/3 265/8/3 264/8/3
f 275/10/3 264/10/3 274/10/3
f 276/2/3 266/2/3 265/2/3
f 276/8/3 265/8/3 275/8/3
f 277/8/3 267/8/3 266/8/3
f 277/2/3 266/2/3 276/2/3
f 278/2/3 269/2/3 268/2/3
f 278/8/3 267/8/3 277/8/3
f 278/2/3 268/2/3 267/2/3
f 279/8/3 270/8/3 269/8/3
f 279/2/3 269/2/3 278/2/3
f 280/2/3 271/2/3 270/2/3
f 280/8/3 270/8/3 279/8/3
f 281/8/3 259/8/3 271/8/3
f 281/2/3 271/2/3 280/2/3
f 282/8/3 85/8/3 210/8/3
f 282/8/3 259/8/3 281/8/3
f 282/8/3 247/8/3 259/8/3
f 282/8/3 210/8/3 247/8/3
f 287/8/3 284/8/3 283/8/3
f 288/8/3 286/8/3 285/8/3
f 289/8/3 287/8/3 283/8/3
f 289/8/3 288/8/3 287/8/3
f 290/8/3 286/8/3 288/8/3
f 290/8/3 288/8/3 289/8/3
f 291/5/4 292/5/4 295/5/4
f 293/8/4 294/8/4 305/8/4
f 291/5/4 295/5/4 306/5/4
f 295/5/4 296/5/4 306/5/4
f 296/8/4 297/8/4 307/8/4
f 306/5/4 296/5/4 307/5/4
f 297/10/4 298/10/4 308/10/4
f 307/8/4 297/8/4 308/8/4
f 298/8/4 299/8/4 309/8/4
f 308/10/4 298/10/4 309/10/4
f 299/2/4 300/2/4 310/2/4
f 309/8/4 299/8/4 310/8/4
f 300/8/4 301/8/4 311/8/4
f 310/2/4 300/2/4 311/2/4
f 301/2/4 302/2/4 312/2/4
f 311/8/4 301/8/4 312/8/4
f 302/8/4 303/8/4 313/8/4
f 312/2/4 302/2/4 313/2/4
f 303/2/4 304/2/4 314/2/4
f 313/8/4 303/8/4 314/8/4
f 304/8/4 305/8/4 315/8/4
f 314/2/4 304/2/4 315/2/4
f 305/8/4 294/8/4 316/8/4
f 315/8/4 305/8/4 316/8/4
f 317/8/4 318/8/4 319/8/4
f 319/8/4 318/8/4 320/8/4
f 320/8/4 318/8/4 321/8/4
f 321/8/4 318/8/4 322/8/4
f 322/8/4 318/8/4 323/8/4
f 323/8/4 318/8/4 324/8/4
f 324/8/4 318/8/4 325/8/4
f 325/8/4 318/8/4 326/8/4
f 326/8/4 318/8/4 327/8/4
f 327/8/4 318/8/4 328/8/4
f 328/8/4 318/8/4 329/8/4
f 329/8/4 318/8/4 330/8/4
f 330/8/4 318/8/4 331/8/4
f 331/8/4 318/8/4 332/8/4
f 332/8/4 318/8/4 333/8/4
f 333/8/4 318/8/4 334/8/4
f 334/8/4 318/8/4 335/8/4
f 335/8/4 318/8/4 336/8/4
f 317/8/4 319/8/4 337/8/4
f 319/10/4 320/10/4 337/10/4
f 320/8/4 321/8/4 338/8/4
f 337/10/4 320/10/4 338/10/4
f 321/10/4 322/10/4 339/10/4
f 338/8/4 321/8/4 339/8/4
f 322/8/4 323/8/4 340/8/4
f 339/10/4 322/10/4 340/10/4
f 323/10/4 324/10/4 341/10/4
f 340/8/4 323/8/4 341/8/4
f 324/8/4 325/8/4 342/8/4
f 341/10/4 324/10/4 342/10/4
f 325/10/4 326/10/4 343/10/4
f 342/8/4 325/8/4 343/8/4
f 326/8/4 327/8/4 344/8/4
f 343/10/4 326/10/4 344/10/4
f 327/10/4 328/10/4 345/10/4
f 344/8/4 327/8/4 345/8/4
f 328/8/4 329/8/4 346/8/4
f 345/10/4 328/10/4 346/10/4
f 329/10/4 330/10/4 347/10/4
f 346/8/4 329/8/4 347/8/4
f 330/8/4 331/8/4 348/8/4
f 347/10/4 330/10/4 348/10/4
f 331/10/4 332/10/4 349/10/4
f 348/8/4 331/8/4 349/8/4
f 332/8/4 333/8/4 350/8/4
f 349/10/4 332/10/4 350/10/4
f 333/10/4 334/10/4 351/10/4
f 350/8/4 333/8/4 351/8/4
f 334/8/4 335/8/4 352/8/4
f 351/10/4 334/10/4 352/10/4
f 335/10/4 336/10/4 353/10/4
f 352/8/4 335/8/4 353/8/4
f 336/8/4 318/8/4 354/8/4
f 353/10/4 336/10/4 354/10/4
f 352/8/4 353/8/4 355/8/4
f 351/8/4 352/8/4 355/8/4
f 353/8/4 354/8/4 355/8/4
f 350/8/4 351/8/4 355/8/4
f 349/8/4 350/8/4 355/8/4
f 348/8/4 349/8/4 355/8/4
f 347/8/4 348/8/4 355/8/4
f 346/8/4 347/8/4 355/8/4
f 345/8/4 346/8/4 355/8/4
f 344/8/4 345/8/4 355/8/4
f 343/8/4 344/8/4 355/8/4
f 342/8/4 343/8/4 355/8/4
f 341/8/4 342/8/4 355/8/4
f 340/8/4 341/8/4 355/8/4
f 339/8/4 340/8/4 355/8/4
f 338/8/4 339/8/4 355/8/4
f 337/8/4 338/8/4 355/8/4
f 317/8/4 337/8/4 355/8/4
f 354/8/4 318/8/4 356/8/4
f 355/8/4 354/8/4 356/8/4
f 360/8/5 358/8/5 357/8/5
f 360/5/5 359/5/5 358/5/5
f 361/5/5 359/5/5 360/5/5
f 362/8/5 360/8/5 357/8/5
f 364/8/5 362/8/5 357/8/5
f 364/8/5 363/8/5 362/8/5
f 365/8/5 363/8/5 364/8/5
f 368/9/5 367/9/5 366/9/5
f 369/9/5 367/9/5 368/9/5
f 370/9/6 371/9/6 372/9/6
f 372/9/6 371/9/6 373/9/6
f 374/8/6 375/8/6 376/8/6
f 376/8/6 375/8/6 377/8/6
f 374/8/6 376/8/6 378/8/6
f 374/8/6 378/8/6 380/8/6
f 378/8/6 379/8/6 380/8/6
f 380/8/6 379/8/6 381/8/6
