# MagicaVoxel @ Ephtracy

# group
o 

# material
mtllib tree.mtl
usemtl palette

# normals
vn -1 0 0
vn 1 0 0
vn 0 0 1
vn 0 0 -1
vn 0 -1 0
vn 0 1 0

# texcoords
vt 0.369141 0.5
vt 0.755859 0.5
vt 0.845703 0.5
vt 0.896484 0.5

# verts
v -0.3 0.2 0.1
v -0.3 0.2 -0.5
v -0.3 0.3 -0.1
v -0.3 0.3 -0.2
v -0.3 0.3 -0.3
v -0.3 0.3 -0.4
v -0.3 0.4 0.1
v -0.3 0.4 0
v -0.3 0.4 -0.1
v -0.3 0.4 -0.2
v -0.3 0.4 -0.3
v -0.3 0.4 -0.4
v -0.3 0.4 -0.5
v -0.3 0.5 0
v -0.3 0.5 -0.4
v -0.2 0.4 0.1
v -0.2 0.4 0
v -0.2 0.4 -0.4
v -0.2 0.4 -0.5
v -0.2 0.5 0.1
v -0.2 0.5 0
v -0.2 0.5 -0.4
v -0.2 0.5 -0.5
v -0.2 0.6 -0.2
v -0.2 0.6 -0.3
v -0.2 0.7 0
v -0.2 0.7 -0.1
v -0.2 0.7 -0.2
v -0.2 0.7 -0.3
v -0.2 0.7 -0.4
v -0.2 0.8 -0.1
v -0.2 0.8 -0.3
v -0.1 0 -0.1
v -0.1 0 -0.3
v -0.1 0.2 -0.1
v -0.1 0.2 -0.3
v -0.1 0.7 0
v -0.1 0.7 -0.1
v -0.1 0.7 -0.3
v -0.1 0.7 -0.4
v -0.1 0.8 0
v -0.1 0.8 -0.1
v -0.1 0.8 -0.3
v -0.1 0.8 -0.4
v -0.1 0.9 -0.1
v -0.1 0.9 -0.3
v 0 0 0
v 0 0 -0.1
v 0 0 -0.3
v 0 0 -0.4
v 0 0.2 0
v 0 0.2 -0.1
v 0 0.2 -0.3
v 0 0.2 -0.4
v 0 0.9 -0.1
v 0 0.9 -0.3
v 0 1 -0.1
v 0 1 -0.3
v 0.1 0 0
v 0.1 0 -0.1
v 0.1 0 -0.3
v 0.1 0 -0.4
v 0.1 0.2 0
v 0.1 0.2 -0.1
v 0.1 0.2 -0.3
v 0.1 0.2 -0.4
v 0.1 0.9 -0.1
v 0.1 0.9 -0.3
v 0.1 1 -0.1
v 0.1 1 -0.3
v 0.2 0 -0.1
v 0.2 0 -0.3
v 0.2 0.2 -0.1
v 0.2 0.2 -0.3
v 0.2 0.7 0
v 0.2 0.7 -0.1
v 0.2 0.7 -0.3
v 0.2 0.7 -0.4
v 0.2 0.8 0
v 0.2 0.8 -0.1
v 0.2 0.8 -0.3
v 0.2 0.8 -0.4
v 0.2 0.9 -0.1
v 0.2 0.9 -0.3
v 0.3 0.4 0.1
v 0.3 0.4 0
v 0.3 0.4 -0.4
v 0.3 0.4 -0.5
v 0.3 0.5 0.1
v 0.3 0.5 0
v 0.3 0.5 -0.4
v 0.3 0.5 -0.5
v 0.3 0.6 -0.2
v 0.3 0.6 -0.3
v 0.3 0.7 0
v 0.3 0.7 -0.1
v 0.3 0.7 -0.2
v 0.3 0.7 -0.3
v 0.3 0.7 -0.4
v 0.3 0.8 -0.1
v 0.3 0.8 -0.3
v 0.4 0.2 0.1
v 0.4 0.2 -0.5
v 0.4 0.3 -0.1
v 0.4 0.3 -0.2
v 0.4 0.3 -0.3
v 0.4 0.3 -0.4
v 0.4 0.4 0.1
v 0.4 0.4 0
v 0.4 0.4 -0.1
v 0.4 0.4 -0.2
v 0.4 0.4 -0.3
v 0.4 0.4 -0.4
v 0.4 0.4 -0.5
v 0.4 0.5 0
v 0.4 0.5 -0.4
v -0.3 0.2 0.1
v -0.3 0.4 0.1
v -0.2 0.3 0.1
v -0.2 0.4 0.1
v -0.2 0.5 0.1
v -0.1 0.3 0.1
v -0.1 0.4 0.1
v 0.1 0.3 0.1
v 0.1 0.4 0.1
v 0.2 0.3 0.1
v 0.2 0.4 0.1
v 0.3 0.4 0.1
v 0.3 0.5 0.1
v 0.4 0.2 0.1
v 0.4 0.4 0.1
v -0.3 0.4 0
v -0.3 0.5 0
v -0.2 0.4 0
v -0.2 0.5 0
v -0.2 0.7 0
v -0.1 0.6 0
v -0.1 0.7 0
v -0.1 0.8 0
v 0 0 0
v 0 0.2 0
v 0 0.6 0
v 0 0.7 0
v 0.1 0 0
v 0.1 0.2 0
v 0.1 0.6 0
v 0.1 0.7 0
v 0.2 0.6 0
v 0.2 0.7 0
v 0.2 0.8 0
v 0.3 0.4 0
v 0.3 0.5 0
v 0.3 0.7 0
v 0.4 0.4 0
v 0.4 0.5 0
v -0.2 0.7 -0.1
v -0.2 0.8 -0.1
v -0.1 0 -0.1
v -0.1 0.2 -0.1
v -0.1 0.7 -0.1
v -0.1 0.8 -0.1
v -0.1 0.9 -0.1
v 0 0 -0.1
v 0 0.2 -0.1
v 0 0.9 -0.1
v 0 1 -0.1
v 0.1 0 -0.1
v 0.1 0.2 -0.1
v 0.1 0.9 -0.1
v 0.1 1 -0.1
v 0.2 0 -0.1
v 0.2 0.2 -0.1
v 0.2 0.7 -0.1
v 0.2 0.8 -0.1
v 0.2 0.9 -0.1
v 0.3 0.7 -0.1
v 0.3 0.8 -0.1
v -0.2 0.7 -0.3
v -0.2 0.8 -0.3
v -0.1 0 -0.3
v -0.1 0.2 -0.3
v -0.1 0.7 -0.3
v -0.1 0.8 -0.3
v -0.1 0.9 -0.3
v 0 0 -0.3
v 0 0.2 -0.3
v 0 0.9 -0.3
v 0 1 -0.3
v 0.1 0 -0.3
v 0.1 0.2 -0.3
v 0.1 0.9 -0.3
v 0.1 1 -0.3
v 0.2 0 -0.3
v 0.2 0.2 -0.3
v 0.2 0.7 -0.3
v 0.2 0.8 -0.3
v 0.2 0.9 -0.3
v 0.3 0.7 -0.3
v 0.3 0.8 -0.3
v -0.3 0.4 -0.4
v -0.3 0.5 -0.4
v -0.2 0.4 -0.4
v -0.2 0.5 -0.4
v -0.2 0.7 -0.4
v -0.1 0.7 -0.4
v -0.1 0.8 -0.4
v 0 0 -0.4
v 0 0.2 -0.4
v 0 0.6 -0.4
v 0 0.7 -0.4
v 0.1 0 -0.4
v 0.1 0.2 -0.4
v 0.1 0.6 -0.4
v 0.1 0.7 -0.4
v 0.2 0.7 -0.4
v 0.2 0.8 -0.4
v 0.3 0.4 -0.4
v 0.3 0.5 -0.4
v 0.3 0.7 -0.4
v 0.4 0.4 -0.4
v 0.4 0.5 -0.4
v -0.3 0.2 -0.5
v -0.3 0.4 -0.5
v -0.2 0.4 -0.5
v -0.2 0.5 -0.5
v 0.1 0.3 -0.5
v 0.1 0.4 -0.5
v 0.2 0.3 -0.5
v 0.2 0.4 -0.5
v 0.3 0.4 -0.5
v 0.3 0.5 -0.5
v 0.4 0.2 -0.5
v 0.4 0.4 -0.5
v 0 0 0
v 0.1 0 0
v -0.1 0 -0.1
v 0 0 -0.1
v 0.1 0 -0.1
v 0.2 0 -0.1
v -0.1 0 -0.3
v 0 0 -0.3
v 0.1 0 -0.3
v 0.2 0 -0.3
v 0 0 -0.4
v 0.1 0 -0.4
v -0.3 0.2 0.1
v 0.4 0.2 0.1
v -0.1 0.2 0
v 0 0.2 0
v 0.1 0.2 0
v 0.2 0.2 0
v -0.1 0.2 -0.1
v 0 0.2 -0.1
v 0.1 0.2 -0.1
v 0.2 0.2 -0.1
v -0.1 0.2 -0.3
v 0 0.2 -0.3
v 0.1 0.2 -0.3
v 0.2 0.2 -0.3
v -0.1 0.2 -0.4
v 0 0.2 -0.4
v 0.1 0.2 -0.4
v 0.2 0.2 -0.4
v -0.3 0.2 -0.5
v 0.4 0.2 -0.5
v -0.3 0.4 0.1
v -0.2 0.4 0.1
v 0.3 0.4 0.1
v 0.4 0.4 0.1
v -0.3 0.4 0
v -0.2 0.4 0
v 0.3 0.4 0
v 0.4 0.4 0
v -0.3 0.4 -0.4
v -0.2 0.4 -0.4
v 0.3 0.4 -0.4
v 0.4 0.4 -0.4
v -0.3 0.4 -0.5
v -0.2 0.4 -0.5
v 0.3 0.4 -0.5
v 0.4 0.4 -0.5
v -0.2 0.5 0.1
v 0.3 0.5 0.1
v -0.3 0.5 0
v -0.2 0.5 0
v 0.3 0.5 0
v 0.4 0.5 0
v -0.3 0.5 -0.4
v -0.2 0.5 -0.4
v 0.3 0.5 -0.4
v 0.4 0.5 -0.4
v -0.2 0.5 -0.5
v 0.3 0.5 -0.5
v -0.2 0.7 0
v -0.1 0.7 0
v 0.2 0.7 0
v 0.3 0.7 0
v -0.2 0.7 -0.1
v -0.1 0.7 -0.1
v 0.2 0.7 -0.1
v 0.3 0.7 -0.1
v -0.2 0.7 -0.3
v -0.1 0.7 -0.3
v 0.2 0.7 -0.3
v 0.3 0.7 -0.3
v -0.2 0.7 -0.4
v -0.1 0.7 -0.4
v 0.2 0.7 -0.4
v 0.3 0.7 -0.4
v -0.1 0.8 0
v 0.2 0.8 0
v -0.2 0.8 -0.1
v -0.1 0.8 -0.1
v 0.2 0.8 -0.1
v 0.3 0.8 -0.1
v -0.2 0.8 -0.3
v -0.1 0.8 -0.3
v 0.2 0.8 -0.3
v 0.3 0.8 -0.3
v -0.1 0.8 -0.4
v 0.2 0.8 -0.4
v -0.1 0.9 -0.1
v 0 0.9 -0.1
v 0.1 0.9 -0.1
v 0.2 0.9 -0.1
v -0.1 0.9 -0.3
v 0 0.9 -0.3
v 0.1 0.9 -0.3
v 0.2 0.9 -0.3
v 0 1 -0.1
v 0.1 1 -0.1
v 0 1 -0.3
v 0.1 1 -0.3

# faces
f 3/4/1 2/4/1 1/4/1
f 4/4/1 2/4/1 3/4/1
f 5/4/1 2/4/1 4/4/1
f 6/4/1 2/4/1 5/4/1
f 7/4/1 3/4/1 1/4/1
f 8/4/1 3/4/1 7/4/1
f 9/2/1 4/2/1 3/2/1
f 9/4/1 3/4/1 8/4/1
f 10/4/1 5/4/1 4/4/1
f 10/2/1 4/2/1 9/2/1
f 11/3/1 6/3/1 5/3/1
f 11/4/1 5/4/1 10/4/1
f 12/4/1 2/4/1 6/4/1
f 12/3/1 6/3/1 11/3/1
f 13/4/1 2/4/1 12/4/1
f 14/4/1 11/4/1 10/4/1
f 14/4/1 12/4/1 11/4/1
f 14/4/1 9/4/1 8/4/1
f 14/4/1 10/4/1 9/4/1
f 15/4/1 12/4/1 14/4/1
f 20/4/1 17/4/1 16/4/1
f 21/4/1 17/4/1 20/4/1
f 22/4/1 19/4/1 18/4/1
f 23/4/1 19/4/1 22/4/1
f 24/4/1 22/4/1 21/4/1
f 25/4/1 22/4/1 24/4/1
f 26/4/1 24/4/1 21/4/1
f 27/4/1 24/4/1 26/4/1
f 28/3/1 25/3/1 24/3/1
f 28/4/1 24/4/1 27/4/1
f 29/4/1 22/4/1 25/4/1
f 29/3/1 25/3/1 28/3/1
f 30/4/1 22/4/1 29/4/1
f 31/4/1 28/4/1 27/4/1
f 31/4/1 29/4/1 28/4/1
f 32/4/1 29/4/1 31/4/1
f 35/1/1 34/1/1 33/1/1
f 36/1/1 34/1/1 35/1/1
f 41/4/1 38/4/1 37/4/1
f 42/4/1 38/4/1 41/4/1
f 43/4/1 40/4/1 39/4/1
f 44/4/1 40/4/1 43/4/1
f 45/4/1 43/4/1 42/4/1
f 46/4/1 43/4/1 45/4/1
f 51/1/1 48/1/1 47/1/1
f 52/1/1 48/1/1 51/1/1
f 53/1/1 50/1/1 49/1/1
f 54/1/1 50/1/1 53/1/1
f 57/4/1 56/4/1 55/4/1
f 58/4/1 56/4/1 57/4/1
f 59/1/2 60/1/2 63/1/2
f 63/1/2 60/1/2 64/1/2
f 61/1/2 62/1/2 65/1/2
f 65/1/2 62/1/2 66/1/2
f 67/4/2 68/4/2 69/4/2
f 69/4/2 68/4/2 70/4/2
f 71/1/2 72/1/2 73/1/2
f 73/1/2 72/1/2 74/1/2
f 75/4/2 76/4/2 79/4/2
f 79/4/2 76/4/2 80/4/2
f 77/4/2 78/4/2 81/4/2
f 81/4/2 78/4/2 82/4/2
f 80/4/2 81/4/2 83/4/2
f 83/4/2 81/4/2 84/4/2
f 85/4/2 86/4/2 89/4/2
f 89/4/2 86/4/2 90/4/2
f 87/4/2 88/4/2 91/4/2
f 91/4/2 88/4/2 92/4/2
f 90/4/2 91/4/2 93/4/2
f 93/4/2 91/4/2 94/4/2
f 90/4/2 93/4/2 95/4/2
f 95/4/2 93/4/2 96/4/2
f 93/3/2 94/3/2 97/3/2
f 96/4/2 93/4/2 97/4/2
f 94/4/2 91/4/2 98/4/2
f 97/3/2 94/3/2 98/3/2
f 98/4/2 91/4/2 99/4/2
f 96/4/2 97/4/2 100/4/2
f 97/4/2 98/4/2 100/4/2
f 100/4/2 98/4/2 101/4/2
f 102/4/2 103/4/2 104/4/2
f 104/4/2 103/4/2 105/4/2
f 105/4/2 103/4/2 106/4/2
f 106/4/2 103/4/2 107/4/2
f 102/4/2 104/4/2 108/4/2
f 108/4/2 104/4/2 109/4/2
f 104/3/2 105/3/2 110/3/2
f 109/4/2 104/4/2 110/4/2
f 105/4/2 106/4/2 111/4/2
f 110/3/2 105/3/2 111/3/2
f 106/2/2 107/2/2 112/2/2
f 111/4/2 106/4/2 112/4/2
f 107/4/2 103/4/2 113/4/2
f 112/2/2 107/2/2 113/2/2
f 113/4/2 103/4/2 114/4/2
f 111/4/2 112/4/2 115/4/2
f 112/4/2 113/4/2 115/4/2
f 109/4/2 110/4/2 115/4/2
f 110/4/2 111/4/2 115/4/2
f 115/4/2 113/4/2 116/4/2
f 119/4/3 118/4/3 117/4/3
f 120/4/3 118/4/3 119/4/3
f 122/4/3 119/4/3 117/4/3
f 122/2/3 120/2/3 119/2/3
f 123/4/3 121/4/3 120/4/3
f 123/2/3 120/2/3 122/2/3
f 124/4/3 122/4/3 117/4/3
f 124/4/3 123/4/3 122/4/3
f 125/4/3 121/4/3 123/4/3
f 125/4/3 123/4/3 124/4/3
f 126/4/3 124/4/3 117/4/3
f 126/3/3 125/3/3 124/3/3
f 127/4/3 121/4/3 125/4/3
f 127/3/3 125/3/3 126/3/3
f 128/4/3 127/4/3 126/4/3
f 128/4/3 121/4/3 127/4/3
f 129/4/3 121/4/3 128/4/3
f 130/4/3 126/4/3 117/4/3
f 130/4/3 128/4/3 126/4/3
f 131/4/3 128/4/3 130/4/3
f 134/4/3 133/4/3 132/4/3
f 135/4/3 133/4/3 134/4/3
f 137/4/3 136/4/3 135/4/3
f 138/4/3 136/4/3 137/4/3
f 142/4/3 137/4/3 135/4/3
f 142/3/3 138/3/3 137/3/3
f 143/4/3 139/4/3 138/4/3
f 143/3/3 138/3/3 142/3/3
f 144/1/3 141/1/3 140/1/3
f 145/1/3 141/1/3 144/1/3
f 146/4/3 142/4/3 135/4/3
f 146/4/3 143/4/3 142/4/3
f 147/4/3 139/4/3 143/4/3
f 147/4/3 143/4/3 146/4/3
f 148/4/3 146/4/3 135/4/3
f 148/2/3 147/2/3 146/2/3
f 149/4/3 139/4/3 147/4/3
f 149/2/3 147/2/3 148/2/3
f 150/4/3 139/4/3 149/4/3
f 152/4/3 148/4/3 135/4/3
f 152/4/3 149/4/3 148/4/3
f 153/4/3 149/4/3 152/4/3
f 154/4/3 152/4/3 151/4/3
f 155/4/3 152/4/3 154/4/3
f 160/4/3 157/4/3 156/4/3
f 161/4/3 157/4/3 160/4/3
f 163/1/3 159/1/3 158/1/3
f 164/1/3 159/1/3 163/1/3
f 165/4/3 162/4/3 161/4/3
f 169/4/3 166/4/3 165/4/3
f 169/4/3 165/4/3 161/4/3
f 170/4/3 166/4/3 169/4/3
f 171/1/3 168/1/3 167/1/3
f 172/1/3 168/1/3 171/1/3
f 174/4/3 169/4/3 161/4/3
f 175/4/3 169/4/3 174/4/3
f 176/4/3 174/4/3 173/4/3
f 177/4/3 174/4/3 176/4/3
f 178/4/4 179/4/4 182/4/4
f 182/4/4 179/4/4 183/4/4
f 180/1/4 181/1/4 185/1/4
f 185/1/4 181/1/4 186/1/4
f 183/4/4 184/4/4 187/4/4
f 187/4/4 188/4/4 191/4/4
f 183/4/4 187/4/4 191/4/4
f 191/4/4 188/4/4 192/4/4
f 189/1/4 190/1/4 193/1/4
f 193/1/4 190/1/4 194/1/4
f 183/4/4 191/4/4 196/4/4
f 196/4/4 191/4/4 197/4/4
f 195/4/4 196/4/4 198/4/4
f 198/4/4 196/4/4 199/4/4
f 200/4/4 201/4/4 202/4/4
f 202/4/4 201/4/4 203/4/4
f 203/4/4 204/4/4 205/4/4
f 203/4/4 205/4/4 209/4/4
f 205/4/4 206/4/4 209/4/4
f 209/4/4 206/4/4 210/4/4
f 207/1/4 208/1/4 211/1/4
f 211/1/4 208/1/4 212/1/4
f 203/4/4 209/4/4 213/4/4
f 209/2/4 210/2/4 213/2/4
f 210/4/4 206/4/4 214/4/4
f 213/2/4 210/2/4 214/2/4
f 214/4/4 206/4/4 215/4/4
f 213/4/4 214/4/4 215/4/4
f 215/4/4 206/4/4 216/4/4
f 203/4/4 213/4/4 218/4/4
f 213/4/4 215/4/4 218/4/4
f 218/4/4 215/4/4 219/4/4
f 217/4/4 218/4/4 220/4/4
f 220/4/4 218/4/4 221/4/4
f 222/4/4 223/4/4 224/4/4
f 222/4/4 224/4/4 226/4/4
f 224/4/4 225/4/4 226/4/4
f 226/4/4 225/4/4 227/4/4
f 222/4/4 226/4/4 228/4/4
f 226/3/4 227/3/4 228/3/4
f 227/4/4 225/4/4 229/4/4
f 228/3/4 227/3/4 229/3/4
f 228/4/4 229/4/4 230/4/4
f 229/4/4 225/4/4 230/4/4
f 230/4/4 225/4/4 231/4/4
f 222/4/4 228/4/4 232/4/4
f 228/4/4 230/4/4 232/4/4
f 232/4/4 230/4/4 233/4/4
f 237/1/5 235/1/5 234/1/5
f 238/1/5 235/1/5 237/1/5
f 240/1/5 237/1/5 236/1/5
f 240/1/5 239/1/5 238/1/5
f 240/1/5 238/1/5 237/1/5
f 241/1/5 239/1/5 240/1/5
f 242/1/5 239/1/5 241/1/5
f 243/1/5 239/1/5 242/1/5
f 244/1/5 242/1/5 241/1/5
f 245/1/5 242/1/5 244/1/5
f 248/4/5 247/4/5 246/4/5
f 249/4/5 247/4/5 248/4/5
f 250/4/5 247/4/5 249/4/5
f 251/4/5 247/4/5 250/4/5
f 252/4/5 248/4/5 246/4/5
f 252/1/5 249/1/5 248/1/5
f 253/1/5 249/1/5 252/1/5
f 254/1/5 251/1/5 250/1/5
f 255/4/5 247/4/5 251/4/5
f 255/1/5 251/1/5 254/1/5
f 256/4/5 252/4/5 246/4/5
f 259/4/5 247/4/5 255/4/5
f 260/1/5 257/1/5 256/1/5
f 260/4/5 256/4/5 246/4/5
f 261/1/5 257/1/5 260/1/5
f 262/1/5 259/1/5 258/1/5
f 263/4/5 247/4/5 259/4/5
f 263/1/5 259/1/5 262/1/5
f 264/4/5 261/4/5 260/4/5
f 264/4/5 262/4/5 261/4/5
f 264/4/5 263/4/5 262/4/5
f 264/4/5 260/4/5 246/4/5
f 265/4/5 247/4/5 263/4/5
f 265/4/5 263/4/5 264/4/5
f 266/4/6 267/4/6 270/4/6
f 270/4/6 267/4/6 271/4/6
f 268/4/6 269/4/6 272/4/6
f 272/4/6 269/4/6 273/4/6
f 274/4/6 275/4/6 278/4/6
f 278/4/6 275/4/6 279/4/6
f 276/4/6 277/4/6 280/4/6
f 280/4/6 277/4/6 281/4/6
f 282/4/6 283/4/6 285/4/6
f 285/4/6 283/4/6 286/4/6
f 284/4/6 285/4/6 288/4/6
f 288/4/6 285/4/6 289/4/6
f 286/4/6 287/4/6 290/4/6
f 290/4/6 287/4/6 291/4/6
f 289/4/6 290/4/6 292/4/6
f 292/4/6 290/4/6 293/4/6
f 294/4/6 295/4/6 298/4/6
f 298/4/6 295/4/6 299/4/6
f 296/4/6 297/4/6 300/4/6
f 300/4/6 297/4/6 301/4/6
f 302/4/6 303/4/6 306/4/6
f 306/4/6 303/4/6 307/4/6
f 304/4/6 305/4/6 308/4/6
f 308/4/6 305/4/6 309/4/6
f 310/4/6 311/4/6 313/4/6
f 313/4/6 311/4/6 314/4/6
f 312/4/6 313/4/6 316/4/6
f 316/4/6 313/4/6 317/4/6
f 314/4/6 315/4/6 318/4/6
f 318/4/6 315/4/6 319/4/6
f 317/4/6 318/4/6 320/4/6
f 320/4/6 318/4/6 321/4/6
f 322/4/6 323/4/6 326/4/6
f 326/4/6 323/4/6 327/4/6
f 324/4/6 325/4/6 328/4/6
f 328/4/6 325/4/6 329/4/6
f 330/4/6 331/4/6 332/4/6
f 332/4/6 331/4/6 333/4/6
